<svg width="24" height="24" viewBox="0 0 24 24" fill="none" xmlns="http://www.w3.org/2000/svg">
<path fill-rule="evenodd" clip-rule="evenodd" d="M14.335 2.32906C13.9646 2.14416 13.5143 2.29466 13.3291 2.66499C13.1441 3.03543 13.2946 3.48565 13.665 3.67085L18.5586 6.11812C18.9821 6.32986 19.25 6.76282 19.25 7.23628V16.7636C19.25 17.2371 18.9821 17.67 18.5586 17.8818L13.665 20.3291C13.2946 20.5143 13.1439 20.9654 13.3291 21.3359C13.5144 21.7061 13.9646 21.8558 14.335 21.6709L19.2295 19.2236C20.1611 18.7578 20.75 17.8052 20.75 16.7636V7.23628C20.75 6.19466 20.1611 5.24215 19.2295 4.77632L14.335 2.32906ZM12.0303 8.96968C11.7374 8.67679 11.2626 8.67679 10.9697 8.96968C10.6768 9.26257 10.6768 9.73733 10.9697 10.0302L12.1895 11.25H4C3.58579 11.25 3.25 11.5857 3.25 12C3.25 12.4142 3.58579 12.75 4 12.75H12.1895L10.9697 13.9697C10.6768 14.2626 10.6768 14.7373 10.9697 15.0302C11.2626 15.3231 11.7374 15.3231 12.0303 15.0302L14.5303 12.5302C14.8232 12.2373 14.8232 11.7626 14.5303 11.4697L12.0303 8.96968Z" fill="#067546"/>
</svg>
