<svg width="12" height="12" viewBox="0 0 12 12" fill="none" xmlns="http://www.w3.org/2000/svg">
<g clip-path="url(#clip0_7409_142112)">
<path d="M6.53145 0.220215C6.23848 -0.0727539 5.7627 -0.0727539 5.46973 0.220215L3.96973 1.72021C3.7541 1.93584 3.69082 2.25693 3.80801 2.53818C3.9252 2.81943 4.19707 3.00225 4.50176 3.00225H5.25176V5.25225H3.00176V4.4999C3.00176 4.19756 2.81895 3.92334 2.5377 3.80615C2.25645 3.68896 1.93535 3.75459 1.71973 3.96787L0.219727 5.46787C-0.0732422 5.76084 -0.0732422 6.23662 0.219727 6.52959L1.71973 8.02959C1.93535 8.24522 2.25645 8.3085 2.5377 8.19131C2.81895 8.07412 3.00176 7.80225 3.00176 7.49756V6.7499H5.25176V8.9999H4.50176C4.19941 8.9999 3.9252 9.18271 3.80801 9.46396C3.69082 9.74521 3.75645 10.0663 3.96973 10.2819L5.46973 11.7819C5.7627 12.0749 6.23848 12.0749 6.53145 11.7819L8.03145 10.2819C8.24707 10.0663 8.31035 9.74521 8.19316 9.46396C8.07598 9.18271 7.8041 8.9999 7.49941 8.9999H6.75176V6.7499H9.00176V7.4999C9.00176 7.80225 9.18457 8.07647 9.46582 8.19365C9.74707 8.31084 10.0682 8.24522 10.2838 8.03193L11.7838 6.53193C12.0768 6.23897 12.0768 5.76318 11.7838 5.47021L10.2838 3.97021C10.0682 3.75459 9.74707 3.69131 9.46582 3.8085C9.18457 3.92568 9.00176 4.19756 9.00176 4.50225V5.25225H6.75176V2.9999H7.50176C7.8041 2.9999 8.07832 2.81709 8.19551 2.53584C8.3127 2.25459 8.24707 1.9335 8.03379 1.71787L6.53379 0.217871L6.53145 0.220215Z" fill="#6B7280"/>
</g>
<defs>
<clipPath id="clip0_7409_142112">
<path d="M0 0H12V12H0V0Z" fill="white"/>
</clipPath>
</defs>
</svg>
