<svg width="24" height="24" viewBox="0 0 24 24" fill="none" xmlns="http://www.w3.org/2000/svg">
<path d="M16 1C17.6569 1 19 2.34315 19 4V5H20C21.6569 5 23 6.34315 23 8V20C23 21.6569 21.6569 23 20 23H8C6.34315 23 5 21.6569 5 20V19H4C2.34315 19 1 17.6569 1 16V4C1 2.34315 2.34315 1 4 1H16ZM19 16C19 17.6569 17.6569 19 16 19H7V20C7 20.5523 7.44772 21 8 21H20C20.5523 21 21 20.5523 21 20V8C21 7.44772 20.5523 7 20 7H19V16ZM4 3C3.44772 3 3 3.44772 3 4V10.0254C3.28727 10.0099 3.57517 10.0015 3.86328 10.002C6.69891 9.95152 9.48432 10.7243 11.7236 12.209C13.5755 13.4368 14.968 15.0989 15.7109 17H16C16.5523 17 17 16.5523 17 16V4C17 3.44772 16.5523 3 16 3H4ZM13.0088 5.75C13.6991 5.75 14.2588 6.30964 14.2588 7C14.2588 7.69036 13.6991 8.25 13.0088 8.25H13C12.3096 8.25 11.75 7.69036 11.75 7C11.75 6.30964 12.3096 5.75 13 5.75H13.0088Z" fill="#4D0CE7"/>
</svg>
