<svg width="20" height="20" viewBox="0 0 20 20" fill="none" xmlns="http://www.w3.org/2000/svg">
<path fill-rule="evenodd" clip-rule="evenodd" d="M7.76684 3.16886C8.76509 1.44331 11.2284 1.44346 12.2268 3.16886L18.5979 14.1845C19.5977 15.9136 18.3829 18.1247 16.3684 18.1249H3.62621C1.61156 18.1249 0.396087 15.9137 1.39574 14.1845L7.76684 3.16886ZM11.1448 3.79484C10.6278 2.9015 9.36576 2.90136 8.84887 3.79484L2.47777 14.8095C1.94132 15.737 2.61027 16.8749 3.62621 16.8749H16.3684C17.3842 16.8747 18.0523 15.7369 17.5159 14.8095L11.1448 3.79484ZM10.0041 12.4999C10.4643 12.4999 10.8379 12.8728 10.8381 13.3329C10.8381 13.7932 10.4644 14.1669 10.0041 14.1669H9.99731C9.53707 14.1669 9.16332 13.7932 9.16332 13.3329C9.1635 12.8728 9.53718 12.4999 9.99731 12.4999H10.0041ZM9.99731 6.87492C10.3424 6.87503 10.6223 7.15481 10.6223 7.49992V10.8329C10.6223 11.178 10.3424 11.4578 9.99731 11.4579C9.65213 11.4579 9.37231 11.1781 9.37231 10.8329V7.49992C9.37231 7.15474 9.65213 6.87492 9.99731 6.87492Z" fill="#FDB022"/>
</svg>
