<svg width="24" height="24" viewBox="0 0 24 24" fill="none" xmlns="http://www.w3.org/2000/svg">
<path fill-rule="evenodd" clip-rule="evenodd" d="M6.5 1.25C7.05 1.25 7.5 1.7 7.5 2.25V3.25H16.5V2.25C16.5 1.7 16.95 1.25 17.5 1.25C18.05 1.25 18.5 1.7 18.5 2.25V3.25H18.75C20.41 3.25 21.75 4.59 21.75 6.25V19.75C21.75 21.41 20.41 22.75 18.75 22.75H5.25C3.59 22.75 2.25 21.41 2.25 19.75V6.25C2.25 4.59 3.59 3.25 5.25 3.25H5.5V2.25C5.5 1.7 5.95 1.25 6.5 1.25ZM4.25 9.25V19.75C4.25 20.3 4.7 20.75 5.25 20.75H18.75C19.3 20.75 19.75 20.3 19.75 19.75V9.25H4.25ZM16.71 13.2101C17.1 12.8201 17.1 12.18 16.71 11.79C16.32 11.4 15.68 11.4 15.29 11.79L11 16.0901L9.70996 14.79C9.31996 14.4 8.68004 14.4 8.29004 14.79C7.90004 15.18 7.90004 15.8201 8.29004 16.2101L10.29 18.2101C10.68 18.6001 11.32 18.6001 11.71 18.2101L16.71 13.2101Z" fill="#4D0CE7"/>
</svg>
