<svg width="18" height="12" viewBox="0 0 18 12" fill="none" xmlns="http://www.w3.org/2000/svg">
<path fill-rule="evenodd" clip-rule="evenodd" d="M-2.51338e-07 5.74981C-2.51338e-07 5.3356 0.335787 4.99981 0.75 4.99981L14.9395 4.99981L11.2197 1.28009C10.9269 0.987198 10.9269 0.512429 11.2197 0.21954C11.5126 -0.0733428 11.9874 -0.0733314 12.2803 0.21954L17.2803 5.21954C17.3289 5.26814 17.366 5.32372 17.3984 5.38067C17.4139 5.40785 17.4303 5.43451 17.4424 5.46368C17.4556 5.49574 17.4641 5.52904 17.4727 5.56231C17.4761 5.57544 17.4817 5.58798 17.4844 5.60138C17.4855 5.60689 17.4863 5.61244 17.4873 5.61798C17.4949 5.66084 17.5 5.70476 17.5 5.74981C17.5 5.79519 17.495 5.83947 17.4873 5.88263C17.4863 5.88816 17.4855 5.89371 17.4844 5.89923C17.4817 5.91261 17.4761 5.92517 17.4727 5.93829C17.464 5.97154 17.4557 6.00488 17.4424 6.03692C17.4303 6.06606 17.414 6.09278 17.3984 6.11993C17.366 6.17662 17.3287 6.23169 17.2803 6.28009L12.2803 11.2801C11.9874 11.573 11.5126 11.573 11.2197 11.2801C10.9268 10.9872 10.9268 10.5124 11.2197 10.2195L14.9395 6.49981L0.75 6.49981C0.335787 6.49981 1.62075e-07 6.16403 -2.51338e-07 5.74981Z" fill="#161616"/>
</svg>
