<svg width="24" height="24" viewBox="0 0 24 24" fill="none" xmlns="http://www.w3.org/2000/svg">
<path fill-rule="evenodd" clip-rule="evenodd" d="M9.53027 6.46967C9.23738 6.17678 8.76262 6.17678 8.46973 6.46967L3.46973 11.4697C3.42133 11.5181 3.38396 11.5731 3.35156 11.6298C3.33603 11.657 3.31971 11.6837 3.30762 11.7128C3.28691 11.7628 3.27212 11.8145 3.2627 11.8671C3.25497 11.9103 3.25 11.9546 3.25 11.9999C3.25 12.045 3.25508 12.0889 3.2627 12.1318C3.27206 12.1844 3.28696 12.236 3.30762 12.2861C3.31968 12.3152 3.33606 12.3419 3.35156 12.3691C3.38403 12.426 3.42113 12.4816 3.46973 12.5302L8.46973 17.5302C8.76262 17.8231 9.23739 17.8231 9.53027 17.5302C9.82314 17.2373 9.82314 16.7626 9.53027 16.4697L5.81055 12.7499H20C20.4142 12.7499 20.75 12.4142 20.75 11.9999C20.75 11.5857 20.4142 11.2499 20 11.2499H5.81055L9.53027 7.53022C9.82317 7.23732 9.82316 6.76256 9.53027 6.46967Z" fill="#C69815"/>
</svg>
