<svg width="20" height="20" viewBox="0 0 20 20" fill="none" xmlns="http://www.w3.org/2000/svg">
<g clip-path="url(#clip0_7615_140764)">
<path d="M7.49219 10.4951H7.50052" stroke="#DB2777" stroke-width="1.66587" stroke-linecap="round" stroke-linejoin="round"/>
<path d="M12.4922 10.4951H12.5005" stroke="#DB2777" stroke-width="1.66587" stroke-linecap="round" stroke-linejoin="round"/>
<path d="M8.32812 13.8271C8.74459 14.077 9.32765 14.2436 9.99399 14.2436C10.6603 14.2436 11.2434 14.077 11.6599 13.8271" stroke="#DB2777" stroke-width="1.66587" stroke-linecap="round" stroke-linejoin="round"/>
<path d="M15.8267 5.74771C16.5813 6.69365 17.0957 7.8082 17.3259 8.99615C17.6076 9.13256 17.8451 9.34555 18.0113 9.61071C18.1775 9.87587 18.2657 10.1825 18.2657 10.4954C18.2657 10.8084 18.1775 11.115 18.0113 11.3802C17.8451 11.6453 17.6076 11.8583 17.3259 11.9947C16.9664 13.6718 16.0425 15.1749 14.7086 16.2531C13.3747 17.3314 11.7113 17.9196 9.99612 17.9196C8.28091 17.9196 6.61756 17.3314 5.28364 16.2531C3.94971 15.1749 3.02588 13.6718 2.6663 11.9947C2.38465 11.8583 2.14711 11.6453 1.98091 11.3802C1.81471 11.115 1.72656 10.8084 1.72656 10.4954C1.72656 10.1825 1.81471 9.87587 1.98091 9.61071C2.14711 9.34555 2.38465 9.13256 2.6663 8.99615C3.01135 7.30572 3.92894 5.78604 5.26424 4.69352C6.59955 3.601 8.27083 3.00251 9.99612 2.99902C11.662 2.99902 12.9114 3.91525 12.9114 5.08136C12.9114 6.24747 12.1618 7.1637 11.2455 7.1637C10.5792 7.1637 9.99612 6.83052 9.99612 6.33076" stroke="#DB2777" stroke-width="1.66587" stroke-linecap="round" stroke-linejoin="round"/>
</g>
<defs>
<clipPath id="clip0_7615_140764">
<rect width="19.9904" height="19.9904" fill="white"/>
</clipPath>
</defs>
</svg>
