<svg width="24" height="24" viewBox="0 0 24 24" fill="none" xmlns="http://www.w3.org/2000/svg">
<path d="M6.52344 2.25C7.72931 2.25001 8.81545 2.90986 9.38379 3.93164L10.0312 3.41406C10.3547 3.15531 10.8272 3.2078 11.0859 3.53125C11.3447 3.8547 11.2922 4.32718 10.9688 4.58594L8.46875 6.58594C8.1453 6.84469 7.67282 6.7922 7.41406 6.46875C7.15531 6.1453 7.2078 5.67282 7.53125 5.41406L8.18164 4.89453C7.92232 4.21014 7.26449 3.75001 6.52344 3.75C5.54401 3.75 4.75 4.54401 4.75 5.52344L4.75 11.25L22 11.25C22.4142 11.25 22.75 11.5858 22.75 12C22.75 12.4142 22.4142 12.75 22 12.75H21.75V16C21.75 17.8107 20.7365 19.3841 19.2461 20.1855L19.5303 20.4697C19.8232 20.7626 19.8232 21.2374 19.5303 21.5303C19.2374 21.8232 18.7626 21.8232 18.4697 21.5303L17.6445 20.7051C17.4337 20.7337 17.2187 20.75 17 20.75L7 20.75C6.78099 20.75 6.56563 20.7338 6.35449 20.7051L5.53027 21.5303C5.23738 21.8232 4.76262 21.8232 4.46973 21.5303C4.17684 21.2374 4.17684 20.7626 4.46973 20.4697L4.75293 20.1855C3.26299 19.384 2.25 17.8104 2.25 16L2.25 12.75H2C1.58579 12.75 1.25 12.4142 1.25 12C1.25 11.5858 1.58579 11.25 2 11.25H3.25L3.25 5.52344C3.25 3.71559 4.71559 2.25 6.52344 2.25ZM3.75 12.75L3.75 16C3.75 17.7949 5.20507 19.25 7 19.25L17 19.25C18.7949 19.25 20.25 17.7949 20.25 16V12.75L3.75 12.75Z" fill="#4D0CE7"/>
</svg>
