<svg width="20" height="20" viewBox="0 0 20 20" fill="none" xmlns="http://www.w3.org/2000/svg">
<path d="M10.0195 1.875C11.9248 1.95934 13.2403 2.84833 14.0342 3.76562C14.3732 4.15746 14.769 4.37891 15.1406 4.37891H16.6641C17.2391 4.37908 17.7049 4.84489 17.7051 5.41992V9.62598C18.4468 10.0053 18.9549 10.7757 18.9551 11.666V17.5C18.9549 17.845 18.6752 18.125 18.3301 18.125C17.9851 18.1248 17.7052 17.8449 17.7051 17.5V14.7949H2.28906V17.5C2.2889 17.8449 2.00899 18.1248 1.66406 18.125C1.31898 18.125 1.03922 17.845 1.03906 17.5V11.666C1.0392 10.7757 1.54731 10.0053 2.28906 9.62598V5.41992C2.28924 4.84489 2.75504 4.37908 3.33008 4.37891H4.85352C5.22477 4.37891 5.61982 4.15771 5.95801 3.76562C6.74728 2.85067 8.05084 1.9699 9.96094 1.875C9.98031 1.87404 10.0002 1.87416 10.0195 1.875ZM3.33008 10.625C2.75505 10.6252 2.28925 11.091 2.28906 11.666V13.5449H17.7051V11.666C17.7049 11.091 17.2391 10.6252 16.6641 10.625H3.33008ZM9.99414 3.125C8.48846 3.20787 7.49889 3.89273 6.9043 4.58203C6.43273 5.12876 5.72205 5.62891 4.85352 5.62891H3.53906V9.375H6.03906V8.59082C6.03906 8.19943 6.26181 7.82175 6.64746 7.65332C7.18178 7.41999 8.57136 6.875 9.99707 6.875C11.4228 6.875 12.8124 7.41999 13.3467 7.65332C13.7323 7.82175 13.9551 8.19943 13.9551 8.59082V9.375H16.4551V5.62891H15.1406C14.2724 5.62891 13.5611 5.12968 13.0889 4.58398C12.4874 3.88896 11.4882 3.19949 9.99414 3.125ZM9.99707 8.125C8.93724 8.125 7.84732 8.50707 7.28906 8.73828V9.375H12.7051V8.73828C12.1468 8.50707 11.0569 8.125 9.99707 8.125Z" fill="white"/>
</svg>
