<svg width="24" height="24" viewBox="0 0 24 24" fill="none" xmlns="http://www.w3.org/2000/svg">
<path fill-rule="evenodd" clip-rule="evenodd" d="M12.0273 2.25082C14.3139 2.35204 15.8921 3.41851 16.8447 4.51938C17.2516 4.98958 17.7259 5.25473 18.1719 5.25473H20C20.6904 5.25473 21.25 5.81437 21.25 6.50473V11.5526C22.1398 12.008 22.75 12.9316 22.75 13.9998V20.9998C22.75 21.4141 22.4142 21.7498 22 21.7498C21.5858 21.7498 21.25 21.4141 21.25 20.9998V17.7538H2.75V20.9998C2.75 21.4141 2.41421 21.7498 2 21.7498C1.58579 21.7498 1.25 21.4141 1.25 20.9998V13.9998C1.25 12.9316 1.86022 12.008 2.75 11.5526V6.50473C2.75 5.81437 3.30964 5.25473 4 5.25473H5.82812C6.27352 5.25473 6.74658 4.98967 7.15234 4.51938C8.0995 3.42126 9.66451 2.36462 11.957 2.25082C11.9804 2.24966 12.004 2.24979 12.0273 2.25082ZM4 12.7498C3.30964 12.7498 2.75 13.3095 2.75 13.9998V16.2538H21.25V13.9998C21.25 13.3095 20.6904 12.7498 20 12.7498H4ZM11.9961 3.75082C10.1894 3.85031 9.00256 4.67175 8.28906 5.49887C7.72318 6.15494 6.87037 6.75473 5.82812 6.75473H4.25V11.2498H7.25V10.3084C7.25016 9.839 7.51699 9.38554 7.97949 9.18344C8.62044 8.90351 10.2889 8.24985 12 8.24985C13.7111 8.24985 15.3796 8.90351 16.0205 9.18344C16.483 9.38554 16.7498 9.839 16.75 10.3084V11.2498H19.75V6.75473H18.1719C17.1301 6.75473 16.2776 6.1556 15.7109 5.50082C14.9892 4.66671 13.7891 3.84018 11.9961 3.75082ZM12 9.74985C10.728 9.74985 9.4198 10.2087 8.75 10.4862V11.2498H15.25V10.4862C14.5802 10.2087 13.272 9.74985 12 9.74985Z" fill="#4D0CE7"/>
</svg>
