<svg width="24" height="24" viewBox="0 0 24 24" fill="none" xmlns="http://www.w3.org/2000/svg">
<path fill-rule="evenodd" clip-rule="evenodd" d="M20.0088 2.25009C20.6585 2.24582 21.2397 2.39837 21.7676 2.85067C22.3099 3.3156 22.5449 3.91336 22.6514 4.59677C22.7505 5.23329 22.75 6.03496 22.75 6.98739L22.75 14.2989C22.75 15.1788 22.7498 15.9009 22.6875 16.4718C22.6233 17.0603 22.484 17.6006 22.1211 18.0499C21.7432 18.5176 21.1895 18.7639 20.582 18.9444C19.9786 19.1237 19.1839 19.2749 18.2012 19.462L18.1602 19.4698C16.4175 19.8016 15.073 20.3271 14.1172 20.8429L14.0986 20.8536C13.61 21.1173 13.219 21.328 12.9199 21.4718C12.7678 21.5449 12.6208 21.6098 12.4844 21.6573C12.3564 21.7018 12.1854 21.7501 12 21.7501C11.8146 21.7501 11.6436 21.7018 11.5156 21.6573C11.3792 21.6098 11.2322 21.5449 11.0801 21.4718C10.781 21.328 10.39 21.1173 9.90137 20.8536L9.88282 20.8429C8.92697 20.3271 7.58254 19.8016 5.83985 19.4698L5.79883 19.462C4.81605 19.2749 4.02145 19.1237 3.41797 18.9444C2.81055 18.7639 2.25678 18.5176 1.87891 18.0499C1.51606 17.6006 1.37675 17.0603 1.3125 16.4718C1.25023 15.9009 1.24999 15.1788 1.25 14.2989L1.25 6.98739C1.24996 6.03496 1.24953 5.2333 1.34864 4.59677C1.45506 3.91337 1.69009 3.3156 2.23242 2.85067C2.76027 2.39837 3.34154 2.24582 3.99121 2.25009C4.57351 2.25392 5.26596 2.38621 6.0586 2.5372C6.07926 2.54113 6.1003 2.54495 6.1211 2.54891C8.96836 3.09108 10.9347 4.13115 12 4.99423C13.0653 4.13115 15.0316 3.09108 17.8789 2.54891L17.9414 2.5372C18.734 2.38621 19.4265 2.25392 20.0088 2.25009ZM3.98145 3.75009C3.60464 3.74761 3.40191 3.82405 3.20899 3.98934C3.03089 4.14196 2.90481 4.3545 2.83106 4.82821C2.75209 5.33582 2.75 6.01899 2.75 7.04598L2.75 14.255C2.75 15.1893 2.75137 15.8288 2.80371 16.3087C2.85513 16.78 2.94643 16.9844 3.0459 17.1075C3.13062 17.2124 3.31825 17.3495 3.84473 17.5059C4.36679 17.6611 5.08647 17.7992 6.1211 17.9962C8.00967 18.3558 9.50014 18.9323 10.5957 19.5235C10.8486 19.66 11.0646 19.776 11.25 19.8741L11.25 6.32723C10.5328 5.67243 8.76079 4.57869 5.83985 4.02255C4.96635 3.85623 4.41031 3.75292 3.98145 3.75009ZM20.0186 3.75009C19.5897 3.75292 19.0337 3.85623 18.1602 4.02255C15.2392 4.57869 13.4672 5.67243 12.75 6.32723L12.75 19.8741C12.9354 19.776 13.1514 19.66 13.4043 19.5235C14.4999 18.9323 15.9903 18.3558 17.8789 17.9962C18.9135 17.7992 19.6332 17.6611 20.1553 17.5059C20.6818 17.3495 20.8694 17.2124 20.9541 17.1075C21.0536 16.9844 21.1449 16.78 21.1963 16.3087C21.2486 15.8288 21.25 15.1893 21.25 14.255L21.25 7.04598C21.25 6.01899 21.2479 5.33581 21.1689 4.82821C21.0952 4.3545 20.9691 4.14196 20.791 3.98934C20.5981 3.82406 20.3954 3.74761 20.0186 3.75009Z" fill="#C69815"/>
</svg>
