<svg width="20" height="20" viewBox="0 0 20 20" fill="none" xmlns="http://www.w3.org/2000/svg">
<path d="M10.8574 1.04199C12.123 1.04199 13.1492 2.0675 13.1494 3.33301V6.0459H15.833C17.0985 6.0459 18.1248 7.07146 18.125 8.33691V18.333C18.125 18.6782 17.8452 18.958 17.5 18.958H2.5C2.15482 18.958 1.875 18.6782 1.875 18.333V3.33301C1.87518 2.06751 2.90145 1.04199 4.16699 1.04199H10.8574ZM4.16699 2.29199C3.5918 2.29199 3.12518 2.75786 3.125 3.33301V17.708H5.20801V14.167C5.20801 13.3616 5.86158 12.708 6.66699 12.708H8.33301C9.13842 12.708 9.79199 13.3616 9.79199 14.167V17.708H11.8994V3.33301C11.8992 2.75786 11.4326 2.29199 10.8574 2.29199H4.16699ZM13.1494 17.708H16.875V8.33691C16.8748 7.76182 16.4082 7.2959 15.833 7.2959H13.1494V17.708ZM6.66699 13.958C6.55193 13.958 6.45801 14.0519 6.45801 14.167V17.708H8.54199V14.167C8.54199 14.0519 8.44807 13.958 8.33301 13.958H6.66699ZM8.75 9.38281C9.09507 9.38281 9.37482 9.66278 9.375 10.0078C9.375 10.353 9.09518 10.6328 8.75 10.6328H6.25C5.90482 10.6328 5.625 10.353 5.625 10.0078C5.62518 9.66278 5.90493 9.38281 6.25 9.38281H8.75ZM8.74609 6.875C9.09117 6.87284 9.37273 7.15099 9.375 7.49609C9.37712 7.84113 9.09898 8.12273 8.75391 8.125L6.25391 8.1416C5.90884 8.14376 5.62729 7.86559 5.625 7.52051C5.62273 7.17534 5.90092 6.89387 6.24609 6.8916L8.74609 6.875ZM8.75 4.38281C9.09507 4.38281 9.37482 4.66278 9.375 5.00781C9.375 5.35299 9.09518 5.63281 8.75 5.63281H6.25C5.90482 5.63281 5.625 5.35299 5.625 5.00781C5.62518 4.66278 5.90493 4.38281 6.25 4.38281H8.75Z" fill="white"/>
</svg>
