<svg width="28" height="28" viewBox="0 0 28 28" fill="none" xmlns="http://www.w3.org/2000/svg">
<path fill-rule="evenodd" clip-rule="evenodd" d="M21 1.16699C21.6442 1.16699 22.1668 1.68883 22.167 2.33301V2.91699H22.75C24.683 2.91699 26.25 4.484 26.25 6.41699V23.333C26.25 25.266 24.683 26.833 22.75 26.833H5.25C3.317 26.833 1.75 25.266 1.75 23.333V6.41699C1.75 4.484 3.317 2.91699 5.25 2.91699H5.83301V2.33301C5.83318 1.68883 6.35578 1.16699 7 1.16699C7.64422 1.16699 8.16682 1.68883 8.16699 2.33301V2.91699H19.833V2.33301C19.8332 1.68883 20.3558 1.16699 21 1.16699ZM4.08301 23.333C4.08301 23.9773 4.60567 24.5 5.25 24.5H22.75C23.3943 24.5 23.917 23.9773 23.917 23.333V11.083H4.08301V23.333ZM14 12.833C14.6443 12.833 15.167 13.3557 15.167 14V16.333H17.5C18.1443 16.333 18.667 16.8557 18.667 17.5C18.667 18.1443 18.1443 18.667 17.5 18.667H15.167V21C15.167 21.6443 14.6443 22.167 14 22.167C13.3557 22.167 12.833 21.6443 12.833 21V18.667H10.5C9.85567 18.667 9.33301 18.1443 9.33301 17.5C9.33301 16.8557 9.85567 16.333 10.5 16.333H12.833V14C12.833 13.3557 13.3557 12.833 14 12.833Z" fill="#17B26A"/>
</svg>
