<svg width="16" height="16" viewBox="0 0 16 16" fill="none" xmlns="http://www.w3.org/2000/svg">
<path fill-rule="evenodd" clip-rule="evenodd" d="M11.9971 0.833008C12.2731 0.833008 12.4969 1.05702 12.4971 1.33301V1.75781C13.0332 1.90983 13.4858 2.15566 13.8623 2.5625C14.3809 3.12316 14.6123 3.832 14.7227 4.71973C14.8308 5.58958 14.8301 6.70462 14.8301 8.12695V8.54004C14.8301 9.96239 14.8308 11.0774 14.7227 11.9473C14.6122 12.8349 14.3809 13.5429 13.8623 14.1035C13.3386 14.6697 12.6681 14.9269 11.8291 15.0488C11.0171 15.1668 9.97978 15.167 8.6709 15.167H7.32324C6.01436 15.167 4.97699 15.1668 4.16504 15.0488C3.32606 14.9269 2.65556 14.6697 2.13184 14.1035C1.61327 13.5429 1.3819 12.8349 1.27148 11.9473C1.16331 11.0774 1.16406 9.96239 1.16406 8.54004V8.12695C1.16406 6.70463 1.16332 5.58957 1.27148 4.71973C1.38188 3.832 1.61323 3.12316 2.13184 2.5625C2.50832 2.15566 2.9609 1.90983 3.49707 1.75781V1.33301C3.49725 1.05702 3.72104 0.833008 3.99707 0.833008C4.2731 0.833008 4.4969 1.05702 4.49707 1.33301V1.57715C5.25444 1.49987 6.18643 1.49999 7.32324 1.5H8.6709C9.80771 1.49999 10.7397 1.49987 11.4971 1.57715V1.33301C11.4972 1.05702 11.721 0.833008 11.9971 0.833008ZM13.7998 5.81152C13.7564 5.82385 13.7114 5.83298 13.6641 5.83301H2.33008C2.2824 5.83298 2.23703 5.82402 2.19336 5.81152C2.1669 6.45387 2.16406 7.22318 2.16406 8.16211V8.50488C2.16406 9.97005 2.16508 11.0224 2.26465 11.8232C2.36293 12.6135 2.54915 13.083 2.86523 13.4248C3.17625 13.761 3.59542 13.9549 4.30859 14.0586C5.04031 14.1649 6.00483 14.167 7.36328 14.167H8.63086C9.98931 14.167 10.9538 14.1649 11.6855 14.0586C12.3987 13.9549 12.8179 13.761 13.1289 13.4248C13.445 13.083 13.6312 12.6135 13.7295 11.8232C13.8291 11.0224 13.8301 9.97005 13.8301 8.50488V8.16211C13.8301 7.22316 13.8263 6.45388 13.7998 5.81152ZM5.33594 10.667C5.70402 10.667 6.00275 10.965 6.00293 11.333C6.00293 11.7012 5.70413 12 5.33594 12H5.33008C4.96204 11.9998 4.66406 11.7011 4.66406 11.333C4.66424 10.9651 4.96215 10.6672 5.33008 10.667H5.33594ZM8 10.667C8.36808 10.667 8.66682 10.965 8.66699 11.333C8.66699 11.7012 8.36819 12 8 12H7.99414C7.62595 12 7.32715 11.7012 7.32715 11.333C7.32732 10.965 7.62606 10.667 7.99414 10.667H8ZM5.33594 8C5.70413 8 6.00293 8.2988 6.00293 8.66699C6.00275 9.03503 5.70402 9.33301 5.33594 9.33301H5.33008C4.96215 9.33283 4.66424 9.03492 4.66406 8.66699C4.66406 8.29891 4.96204 8.00018 5.33008 8H5.33594ZM8 8C8.36819 8 8.66699 8.2988 8.66699 8.66699C8.66682 9.03503 8.36808 9.33301 8 9.33301H7.99414C7.62606 9.33301 7.32732 9.03503 7.32715 8.66699C7.32715 8.2988 7.62595 8 7.99414 8H8ZM10.6641 8C11.0321 8.00018 11.3301 8.29891 11.3301 8.66699C11.3299 9.03492 11.032 9.33283 10.6641 9.33301H10.6582C10.2901 9.33301 9.99139 9.03503 9.99121 8.66699C9.99121 8.2988 10.29 8 10.6582 8H10.6641ZM7.36328 2.5C6.11837 2.5 5.20434 2.50196 4.49707 2.58398V2.66699C4.49689 2.94299 4.2731 3.16699 3.99707 3.16699C3.76902 3.16699 3.57865 3.0134 3.51856 2.80469C3.24612 2.91282 3.03851 3.05486 2.86523 3.24219C2.54968 3.58347 2.36302 4.0517 2.26465 4.83984C2.28615 4.83701 2.3078 4.83302 2.33008 4.83301H13.6641C13.686 4.83302 13.7073 4.83709 13.7285 4.83984C13.6301 4.05177 13.4444 3.58345 13.1289 3.24219C12.9555 3.05467 12.7475 2.91285 12.4746 2.80469C12.4144 3.01327 12.225 3.16699 11.9971 3.16699C11.721 3.16699 11.4972 2.94298 11.4971 2.66699V2.58398C10.7898 2.50196 9.87577 2.5 8.63086 2.5H7.36328Z" fill="#C69815"/>
</svg>
