<svg width="20" height="21" viewBox="0 0 20 21" fill="none" xmlns="http://www.w3.org/2000/svg">
<path d="M15.6406 0C16.0611 0 16.4101 0.332018 16.4102 0.732422V1.46484H17.1797C18.7386 1.46495 20 2.66678 20 4.15137V18.3135C20 19.7981 18.7386 20.9999 17.1797 21H2.82031C1.26143 20.9999 0 19.7981 0 18.3135V4.15137C0 2.66678 1.26143 1.46495 2.82031 1.46484H3.58984V0.732422C3.58992 0.332018 3.93891 0 4.35938 0C4.77966 0.000210838 5.12785 0.332145 5.12793 0.732422V1.46484H14.8721V0.732422C14.8721 0.332145 15.2203 0.000210462 15.6406 0ZM1.53809 7.81348V18.3135C1.53809 18.9874 2.11271 19.5351 2.82031 19.5352H17.1797C17.8873 19.5351 18.4619 18.9874 18.4619 18.3135V7.81348H1.53809ZM13.5586 10.4707C13.856 10.1875 14.3481 10.1875 14.6455 10.4707C14.9429 10.754 14.9429 11.2226 14.6455 11.5059L9.51758 16.3896C9.36373 16.5362 9.1685 16.6045 8.97363 16.6045C8.7789 16.6044 8.58443 16.536 8.43066 16.3896L6.37891 14.4365C6.08147 14.1533 6.08147 13.6836 6.37891 13.4004C6.67623 13.1175 7.16842 13.1176 7.46582 13.4004L8.97363 14.8369L13.5586 10.4707ZM2.82031 2.93066C2.11271 2.93077 1.53809 3.47748 1.53809 4.15137V6.34863H18.4619V4.15137C18.4619 3.47748 17.8873 2.93077 17.1797 2.93066H16.4102V3.66309C16.41 4.06342 16.061 4.39551 15.6406 4.39551C15.2204 4.3953 14.8722 4.06329 14.8721 3.66309V2.93066H5.12793V3.66309C5.12776 4.06329 4.77961 4.3953 4.35938 4.39551C3.93897 4.39551 3.59001 4.06342 3.58984 3.66309V2.93066H2.82031Z" fill="#4D0CE7"/>
</svg>
