<svg width="20" height="20" viewBox="0 0 20 20" fill="none" xmlns="http://www.w3.org/2000/svg">
<path d="M15.0029 1.04199C15.3481 1.04199 15.6279 1.32181 15.6279 1.66699V2.19727C16.2984 2.38735 16.8643 2.69524 17.335 3.2041C17.983 3.90484 18.2712 4.78998 18.4092 5.89941C18.5444 6.98671 18.5449 8.3803 18.5449 10.1582V10.6748C18.5449 12.4527 18.5444 13.8463 18.4092 14.9336C18.2712 16.0432 17.9832 16.9291 17.335 17.6299C16.6804 18.3375 15.8425 18.6581 14.7939 18.8105C13.779 18.9581 12.4819 18.958 10.8457 18.958H9.16016C7.52397 18.958 6.22684 18.9581 5.21191 18.8105C4.16341 18.6581 3.32546 18.3375 2.6709 17.6299C2.02264 16.9291 1.73468 16.0432 1.59668 14.9336C1.46147 13.8463 1.46093 12.4527 1.46094 10.6748V10.1582C1.46093 8.3803 1.46146 6.98671 1.59668 5.89941C1.73467 4.78998 2.02284 3.90484 2.6709 3.2041C3.1416 2.69524 3.70748 2.38735 4.37793 2.19727V1.66699C4.37793 1.32181 4.65775 1.04199 5.00293 1.04199C5.34811 1.04199 5.62793 1.32181 5.62793 1.66699V1.97168C6.57454 1.87509 7.73935 1.87499 9.16016 1.875H10.8457C12.2665 1.87499 13.4313 1.87509 14.3779 1.97168V1.66699C14.3779 1.32181 14.6578 1.04199 15.0029 1.04199ZM17.2607 7.26367C17.2051 7.27991 17.1468 7.29199 17.0859 7.29199H2.91992C2.85871 7.29199 2.80005 7.28008 2.74414 7.26367C2.71104 8.06674 2.71094 9.02916 2.71094 10.2031V10.6309C2.71094 12.4626 2.71243 13.7782 2.83691 14.7793C2.95977 15.7672 3.19369 16.354 3.58887 16.7812C3.9776 17.2013 4.50137 17.4447 5.39258 17.5742C6.30722 17.7071 7.51298 17.708 9.21094 17.708H10.7949C12.4929 17.708 13.6986 17.7071 14.6133 17.5742C15.5045 17.4447 16.0283 17.2013 16.417 16.7812C16.8122 16.354 17.0461 15.7672 17.1689 14.7793C17.2934 13.7782 17.2949 12.4626 17.2949 10.6309V10.2031C17.2949 9.02914 17.2938 8.06674 17.2607 7.26367ZM6.67676 13.333C7.137 13.333 7.51074 13.7068 7.51074 14.167C7.51057 14.6271 7.13689 15 6.67676 15H6.66992C6.20979 15 5.83611 14.6271 5.83594 14.167C5.83594 13.7068 6.20968 13.333 6.66992 13.333H6.67676ZM10.0068 13.333C10.467 13.3331 10.8398 13.7068 10.8398 14.167C10.8397 14.627 10.4669 14.9999 10.0068 15H9.99902C9.53897 14.9999 9.16619 14.627 9.16602 14.167C9.16602 13.7068 9.53886 13.3331 9.99902 13.333H10.0068ZM6.67676 10C7.13689 10 7.51057 10.3729 7.51074 10.833C7.51074 11.2932 7.137 11.667 6.67676 11.667H6.66992C6.20968 11.667 5.83594 11.2932 5.83594 10.833C5.83611 10.3729 6.20979 10 6.66992 10H6.67676ZM10.0068 10C10.4669 10.0001 10.8397 10.373 10.8398 10.833C10.8398 11.2932 10.467 11.6669 10.0068 11.667H9.99902C9.53886 11.6669 9.16602 11.2932 9.16602 10.833C9.16619 10.373 9.53897 10.0001 9.99902 10H10.0068ZM13.3359 10C13.7961 10 14.1697 10.3729 14.1699 10.833C14.1699 11.2932 13.7962 11.667 13.3359 11.667H13.3291C12.8689 11.667 12.4951 11.2932 12.4951 10.833C12.4953 10.3729 12.869 10 13.3291 10H13.3359ZM9.21094 3.125C7.65464 3.125 6.51207 3.12793 5.62793 3.23047V3.33301C5.62793 3.67819 5.34811 3.95801 5.00293 3.95801C4.71782 3.95801 4.47937 3.76682 4.4043 3.50586C4.06397 3.641 3.80537 3.81868 3.58887 4.05273C3.19423 4.47937 2.9599 5.06432 2.83691 6.0498C2.86408 6.0462 2.89177 6.04199 2.91992 6.04199H17.0859C17.1138 6.04199 17.1411 6.04628 17.168 6.0498C17.045 5.06439 16.8116 4.47936 16.417 4.05273C16.2003 3.81849 15.9413 3.64104 15.6006 3.50586C15.5254 3.76669 15.2879 3.95801 15.0029 3.95801C14.6578 3.95801 14.3779 3.67819 14.3779 3.33301V3.23047C13.4938 3.12793 12.3512 3.125 10.7949 3.125H9.21094Z" fill="white"/>
</svg>
