<svg width="28" height="28" viewBox="0 0 28 28" fill="none" xmlns="http://www.w3.org/2000/svg">
<path fill-rule="evenodd" clip-rule="evenodd" d="M21 1.16699C21.6442 1.16699 22.1668 1.68883 22.167 2.33301V2.91699H22.75C24.683 2.91699 26.25 4.484 26.25 6.41699V23.333C26.25 25.266 24.683 26.833 22.75 26.833H5.25C3.317 26.833 1.75 25.266 1.75 23.333V6.41699C1.75 4.484 3.317 2.91699 5.25 2.91699H5.83301V2.33301C5.83318 1.68883 6.35578 1.16699 7 1.16699C7.64422 1.16699 8.16682 1.68883 8.16699 2.33301V2.91699H19.833V2.33301C19.8332 1.68883 20.3558 1.16699 21 1.16699ZM4.08301 23.333C4.08301 23.9773 4.60567 24.5 5.25 24.5H22.75C23.3943 24.5 23.917 23.9773 23.917 23.333V11.083H4.08301V23.333ZM16.0918 14.3418C16.5474 13.8862 17.2856 13.8863 17.7412 14.3418C18.1968 14.7974 18.1968 15.5356 17.7412 15.9912L15.6504 18.083L17.7412 20.1748C18.1968 20.6304 18.1968 21.3696 17.7412 21.8252C17.2856 22.2804 16.5473 22.2805 16.0918 21.8252L14 19.7334L11.9082 21.8252C11.4527 22.2805 10.7144 22.2804 10.2588 21.8252C9.80318 21.3696 9.80318 20.6304 10.2588 20.1748L12.3496 18.083L10.2588 15.9912C9.80318 15.5356 9.80318 14.7974 10.2588 14.3418C10.7144 13.8863 11.4526 13.8862 11.9082 14.3418L14 16.4336L16.0918 14.3418Z" fill="#F04438"/>
</svg>
