<svg width="21" height="18" viewBox="0 0 21 18" fill="none" xmlns="http://www.w3.org/2000/svg">
<g clip-path="url(#clip0_7409_142176)">
<path d="M0 4.5C0 3.25898 1.00898 2.25 2.25 2.25H11.25C12.491 2.25 13.5 3.25898 13.5 4.5V13.5C13.5 14.741 12.491 15.75 11.25 15.75H2.25C1.00898 15.75 0 14.741 0 13.5V4.5ZM19.6559 3.50859C20.0215 3.70547 20.25 4.08516 20.25 4.5V13.5C20.25 13.9148 20.0215 14.2945 19.6559 14.4914C19.2902 14.6883 18.8473 14.6672 18.4992 14.4352L15.1242 12.1852L14.625 11.8512V11.25V6.75V6.14883L15.1242 5.81484L18.4992 3.56484C18.8438 3.33633 19.2867 3.31172 19.6559 3.50859Z" fill="#2563EB"/>
</g>
<defs>
<clipPath id="clip0_7409_142176">
<path d="M0 0H20.25V18H0V0Z" fill="white"/>
</clipPath>
</defs>
</svg>
