<svg width="20" height="20" viewBox="0 0 20 20" fill="none" xmlns="http://www.w3.org/2000/svg">
<path d="M12.3135 1.875C12.941 1.87509 13.4977 2.27676 13.6963 2.87207L14.1973 4.375H16.6641C17.9296 4.37518 18.9551 5.40145 18.9551 6.66699V15.833C18.9551 17.0986 17.9296 18.1248 16.6641 18.125H3.33008C2.06458 18.1248 1.03906 17.0986 1.03906 15.833V6.66699C1.03906 5.40145 2.06458 4.37518 3.33008 4.375H5.79688L6.29785 2.87207C6.49639 2.27664 7.05398 1.875 7.68164 1.875H12.3135ZM7.68164 3.125C7.59197 3.125 7.51176 3.18251 7.4834 3.26758L6.42383 6.44727C6.31467 6.77473 5.96028 6.95193 5.63281 6.84277C5.30559 6.73361 5.12847 6.38002 5.2373 6.05273L5.37988 5.625H3.33008C2.75493 5.62518 2.28906 6.0918 2.28906 6.66699V15.833C2.28906 16.4082 2.75493 16.8748 3.33008 16.875H16.6641C17.2392 16.8748 17.7051 16.4082 17.7051 15.833V6.66699C17.7051 6.0918 17.2392 5.62518 16.6641 5.625H14.6143L14.7568 6.05273C14.8658 6.3801 14.6887 6.73366 14.3613 6.84277C14.0339 6.95182 13.6804 6.77468 13.5713 6.44727L12.5107 3.26758C12.4824 3.18257 12.4031 3.12509 12.3135 3.125H7.68164ZM9.99805 8.125C11.9545 8.125 13.541 9.71073 13.541 11.667C13.5408 13.6231 11.9544 15.208 9.99805 15.208C8.04183 15.2079 6.45525 13.623 6.45508 11.667C6.45508 9.71082 8.04172 8.12514 9.99805 8.125ZM9.99805 9.375C8.73158 9.37514 7.70508 10.4017 7.70508 11.667C7.70525 12.9322 8.73169 13.9579 9.99805 13.958C11.2645 13.958 12.2908 12.9323 12.291 11.667C12.291 10.4016 11.2646 9.375 9.99805 9.375ZM10.082 4.1709C10.5024 4.21342 10.8301 4.56841 10.8301 5C10.8301 5.46024 10.4573 5.83301 9.99707 5.83301L9.91211 5.8291C9.49178 5.78654 9.16406 5.43156 9.16406 5C9.16406 4.53976 9.53683 4.16699 9.99707 4.16699L10.082 4.1709Z" fill="white"/>
</svg>
