<svg width="20" height="20" viewBox="0 0 20 20" fill="none" xmlns="http://www.w3.org/2000/svg">
<path fill-rule="evenodd" clip-rule="evenodd" d="M8.3418 4.37109C8.68346 4.37109 8.9668 4.65443 8.9668 4.99609C8.96671 5.33769 8.68341 5.62109 8.3418 5.62109H6.5332C6.11666 5.62123 5.73349 5.87113 5.5752 6.2627L4.2002 9.5625L5.08398 9.78711H14.9336L16.4004 9.4209L17.9668 8.24609C18.2418 8.03776 18.6335 8.09609 18.8418 8.37109C19.0501 8.64609 18.9918 9.03777 18.7168 9.24609L17.5254 10.1455L18.584 11.7373C18.834 12.104 18.9668 12.546 18.9668 13.0127V17.5039C18.9668 18.3038 18.3087 18.9628 17.5088 18.9629L17.4922 18.9541H16.6582C15.8584 18.9539 15.2003 18.2959 15.2002 17.4961V16.4541H4.7832V17.4961C4.78311 18.296 4.12514 18.9541 3.3252 18.9541H2.49219C1.69224 18.9541 1.03329 18.296 1.0332 17.4961V13.0039C1.03329 12.5375 1.16669 12.096 1.4248 11.7295L2.4834 10.1455L1.29199 9.24609C1.017 9.03776 0.958674 8.64609 1.16699 8.37109C1.37533 8.09609 1.76699 8.03776 2.04199 8.24609L3.06641 9.0127L4.41699 5.7793C4.77528 4.92107 5.60834 4.37122 6.5332 4.37109H8.3418ZM15.1338 11.0127C15.0838 11.021 15.0334 11.0293 14.9834 11.0293H4.9834C4.9336 11.0293 4.88379 11.0292 4.83398 11.0127L3.5918 10.7041L2.4502 12.4209C2.33354 12.5876 2.27539 12.7961 2.27539 12.9961V17.4873C2.27539 17.6039 2.3668 17.6962 2.4834 17.6963H3.31641C3.43307 17.6963 3.52539 17.604 3.52539 17.4873V15.8213C3.52539 15.4796 3.80872 15.1963 4.15039 15.1963L4.1582 15.2041H15.8252C16.1668 15.2041 16.4501 15.4875 16.4502 15.8291V17.4961C16.4503 17.6126 16.5417 17.7039 16.6582 17.7041H17.4922C17.6086 17.7039 17.7001 17.6126 17.7002 17.4961V13.0039C17.7001 12.7957 17.642 12.5953 17.5254 12.4287L16.375 10.7041L15.1338 11.0127ZM4.99219 12.5039C5.45037 12.5041 5.8252 12.8713 5.8252 13.3379C5.82504 13.8043 5.45028 14.1795 4.99219 14.1797V14.1709C4.53395 14.1709 4.15836 13.7961 4.1582 13.3379C4.1582 12.8796 4.53385 12.5039 4.99219 12.5039ZM14.9922 12.5039C15.4504 12.5041 15.8252 12.8713 15.8252 13.3379C15.825 13.8043 15.4503 14.1795 14.9922 14.1797V14.1709C14.5339 14.1709 14.1584 13.7961 14.1582 13.3379C14.1582 12.8796 14.5339 12.5039 14.9922 12.5039ZM14.1582 1.03711C16.3415 1.03711 18.1172 2.81276 18.1172 4.99609C18.1171 7.17935 16.3415 8.9541 14.1582 8.9541C11.9751 8.95393 10.2003 7.17924 10.2002 4.99609C10.2002 2.81287 11.975 1.03729 14.1582 1.03711ZM14.1582 2.28711C12.6667 2.28729 11.4502 3.50454 11.4502 4.99609C11.4503 6.48758 12.6667 7.70392 14.1582 7.7041C15.6498 7.7041 16.8671 6.48769 16.8672 4.99609C16.8672 3.50443 15.6499 2.28711 14.1582 2.28711ZM14.1582 6.03809C14.4997 6.03809 14.7829 6.31234 14.7832 6.66211C14.7832 7.01211 14.4999 7.2959 14.1582 7.2959V7.28711C13.8167 7.28693 13.5332 7.00367 13.5332 6.66211C13.5335 6.32077 13.8168 6.03827 14.1582 6.03809ZM14.1582 2.7041C14.4998 2.7041 14.7831 2.98751 14.7832 3.3291V4.99609C14.7831 5.33769 14.4998 5.62109 14.1582 5.62109C13.8167 5.62091 13.5333 5.33758 13.5332 4.99609V3.3291C13.5333 2.98762 13.8167 2.70428 14.1582 2.7041Z" fill="#8B8B8B"/>
</svg>
