<svg width="15" height="11" viewBox="0 0 15 11" fill="none" xmlns="http://www.w3.org/2000/svg">
<path d="M7.39439 0.000976562C7.43547 0.00150834 7.49323 0.00278635 7.56138 0.00488281C7.69629 0.00903702 7.87896 0.0166679 8.05454 0.0341797C8.81707 0.105948 9.4412 0.469069 10.0145 1.24316C10.2312 1.53585 10.432 1.86362 10.6151 2.16211C10.6702 2.25205 10.7244 2.33898 10.7762 2.42188C11.0138 2.80166 11.2198 3.09625 11.4334 3.28809C11.5939 3.43215 11.8065 3.54251 12.0799 3.65332C12.1639 3.68736 12.2648 3.72602 12.3729 3.7666C12.5687 3.84008 12.7881 3.92188 12.9696 4.00488C13.2787 4.14629 13.6093 4.34076 13.867 4.65625C14.1317 4.98037 14.2872 5.39245 14.3163 5.91211L14.3172 5.91992V5.92676C14.3293 6.37087 14.3359 6.83636 14.3338 7.21289C14.3328 7.40076 14.3297 7.57032 14.3241 7.70508C14.3199 7.80504 14.3127 7.93088 14.2938 8.02734C14.2375 8.40078 14.0427 8.68027 13.7352 8.83789C13.4707 8.97338 13.1656 8.99391 12.9354 9C12.74 9.00517 12.5278 9.00148 12.3446 8.99805C12.3311 8.99779 12.3177 8.99731 12.3045 8.99707C12.292 8.99684 12.2796 8.99631 12.2674 8.99609C12.0509 9.76736 11.3452 10.334 10.5047 10.334C9.66567 10.3339 8.95968 9.7694 8.74204 9H5.60142C5.3838 9.76938 4.67773 10.3338 3.83872 10.334C2.97562 10.334 2.25328 9.7368 2.05845 8.93359C1.31906 8.80176 0.824167 8.63435 0.505715 8.39551C0.302761 8.24318 0.16999 8.06212 0.0945825 7.8584C0.0250922 7.67059 0.0147351 7.48713 0.00864499 7.36523L0.00766842 7.35547V7.3457C-0.00454719 6.21487 0.000769039 5.06536 0.00376217 4.35547C0.00469424 4.1344 0.0047374 3.95594 0.00473874 3.83398V3.80273L0.00864499 3.77246C0.12999 2.79421 0.560492 1.69904 0.907082 1H0.515481C0.239417 0.999908 0.0154809 0.776086 0.0154809 0.5C0.0156567 0.224064 0.239525 9.19628e-05 0.515481 0L7.34556 0L7.39439 0.000976562ZM3.83872 7.66699C3.37859 7.66699 3.00491 8.0399 3.00474 8.5C3.00474 8.96025 3.37848 9.33398 3.83872 9.33398C4.29039 9.33378 4.65651 8.9739 4.66978 8.52539C4.66937 8.51707 4.66782 8.50842 4.66782 8.5C4.66783 8.49079 4.67026 8.48174 4.67075 8.47266C4.65615 8.02535 4.28952 7.6672 3.83872 7.66699ZM10.5047 7.66699C10.0447 7.66713 9.67191 8.03998 9.67173 8.5C9.67173 8.96017 10.0446 9.33384 10.5047 9.33398C10.9407 9.33398 11.2973 8.99878 11.3338 8.57227C11.3323 8.56189 11.3298 8.55161 11.329 8.54102C11.3257 8.50115 11.328 8.4617 11.3338 8.42383C11.2952 7.99947 10.9392 7.66699 10.5047 7.66699ZM11.1717 4.33398H1.00376C1.00372 4.34515 1.00381 4.35678 1.00376 4.36816C1.00078 5.07724 0.995689 6.20683 1.00767 7.3252C1.01349 7.43543 1.02106 7.48067 1.03208 7.51074C1.03762 7.52571 1.04855 7.55308 1.10532 7.5957C1.22681 7.68688 1.49943 7.80616 2.09849 7.92285C2.34048 7.19337 3.02804 6.66699 3.83872 6.66699C4.67751 6.66717 5.3836 7.23092 5.60142 8H8.74204C8.95987 7.23091 9.66589 6.66711 10.5047 6.66699C11.3421 6.66699 12.0462 7.22911 12.2655 7.99609C12.2848 7.99643 12.3041 7.99672 12.3231 7.99707L12.3583 7.99805C12.5469 8.00156 12.7374 8.00552 12.909 8.00098C13.0118 7.99825 13.0937 7.9914 13.16 7.98047C13.2265 7.9695 13.2622 7.95598 13.2792 7.94727C13.2838 7.94489 13.2866 7.94333 13.2879 7.94238L13.2889 7.94043C13.2899 7.93843 13.291 7.93468 13.2928 7.92969C13.2966 7.91923 13.3026 7.90135 13.3065 7.87305L13.3094 7.8457L13.3163 7.81934C13.3143 7.82729 13.315 7.82567 13.3163 7.81055C13.318 7.78983 13.3217 7.74367 13.3251 7.66309C13.3299 7.54545 13.3329 7.38985 13.3338 7.20801C13.3358 6.84679 13.3299 6.39529 13.3182 5.96191C13.2984 5.62627 13.2043 5.42594 13.0926 5.28906C12.973 5.14265 12.7989 5.02626 12.5536 4.91406C12.3936 4.84092 12.2468 4.78708 12.0838 4.72656C11.9689 4.6839 11.8458 4.63758 11.704 4.58008C11.5373 4.51253 11.3603 4.43319 11.1864 4.33301C11.1816 4.33314 11.1766 4.33398 11.1717 4.33398ZM2.02036 1.04199C1.77586 1.43962 1.32702 2.40617 1.10532 3.33398H4.67173V1H2.0438C2.03683 1.01418 2.02881 1.02826 2.02036 1.04199ZM5.67173 3.33398H10.1766C10.0895 3.20725 10.0072 3.07784 9.92857 2.95215C9.86607 2.85226 9.80528 2.75391 9.74595 2.65723C9.56785 2.36701 9.39906 2.0921 9.21079 1.83789C8.77753 1.25291 8.39527 1.07103 7.95982 1.03027H7.95591C7.81236 1.01592 7.6555 1.00774 7.53111 1.00391C7.4699 1.00202 7.41796 1.00145 7.38169 1.00098L7.3397 1H5.67173V3.33398Z" fill="#4B5565"/>
</svg>
