<svg width="20" height="20" viewBox="0 0 20 20" fill="none" xmlns="http://www.w3.org/2000/svg">
<path d="M16.6641 7.49996C16.0014 4.17875 12.9247 1.66663 9.23015 1.66663C5.05197 1.66663 1.66406 4.8793 1.66406 8.84163C1.66406 10.7455 2.44589 12.4753 3.72119 13.759C4.00197 14.0416 4.18944 14.4278 4.11378 14.8252C3.98891 15.475 3.70595 16.0812 3.2916 16.5864C4.38175 16.7874 5.51529 16.6064 6.4874 16.0939C6.83105 15.9128 7.00287 15.8222 7.12412 15.8038C7.209 15.791 7.31955 15.803 7.4974 15.8335" fill="#4D0CE7"/>
<path d="M16.6641 7.49996C16.0014 4.17875 12.9247 1.66663 9.23015 1.66663C5.05197 1.66663 1.66406 4.8793 1.66406 8.84163C1.66406 10.7455 2.44589 12.4753 3.72119 13.759C4.00197 14.0416 4.18944 14.4278 4.11378 14.8252C3.98891 15.475 3.70595 16.0812 3.2916 16.5864C4.38175 16.7874 5.51529 16.6064 6.4874 16.0939C6.83105 15.9128 7.00287 15.8222 7.12412 15.8038C7.209 15.791 7.31955 15.803 7.4974 15.8335" stroke="white" stroke-linecap="round" stroke-linejoin="round"/>
<path d="M9.16406 13.5514C9.16406 15.9728 11.2164 17.9361 13.7474 17.9361C14.045 17.9365 14.3417 17.909 14.6341 17.8541C14.8445 17.8145 14.9497 17.7948 15.0231 17.806C15.0966 17.8172 15.2007 17.8726 15.4089 17.9833C15.9977 18.2965 16.6844 18.407 17.3448 18.2842C17.0938 17.9755 16.9224 17.6051 16.8467 17.208C16.8009 16.9651 16.9145 16.7291 17.0846 16.5564C17.8571 15.7719 18.3307 14.7148 18.3307 13.5514C18.3307 11.13 16.2784 9.16663 13.7474 9.16663C11.2164 9.16663 9.16406 11.13 9.16406 13.5514Z" fill="#4D0CE7" stroke="white" stroke-linejoin="round"/>
</svg>
