<svg width="20" height="20" viewBox="0 0 20 20" fill="none" xmlns="http://www.w3.org/2000/svg">
<path fill-rule="evenodd" clip-rule="evenodd" d="M9.99707 1.04199C11.6276 1.04199 13.1583 1.47772 14.4766 2.24023C14.7754 2.41307 14.8779 2.79594 14.7051 3.09473C14.5322 3.39348 14.1494 3.4951 13.8506 3.32227C12.7175 2.66686 11.402 2.29199 9.99707 2.29199C5.73988 2.29199 2.28906 5.74281 2.28906 10C2.28906 14.2572 5.73988 17.708 9.99707 17.708C14.2543 17.708 17.7051 14.2572 17.7051 10C17.7051 9.4713 17.6518 8.95576 17.5508 8.45801C17.4821 8.11982 17.7009 7.78949 18.0391 7.7207C18.3773 7.65204 18.7077 7.87071 18.7764 8.20898C18.8939 8.78819 18.9551 9.38724 18.9551 10C18.9551 14.9476 14.9446 18.958 9.99707 18.958C5.04952 18.958 1.03906 14.9476 1.03906 10C1.03906 5.05245 5.04952 1.04199 9.99707 1.04199ZM18.0723 3.59766C18.3864 3.45505 18.7566 3.59407 18.8994 3.9082C19.0422 4.22242 18.9031 4.59253 18.5889 4.73535C16.441 5.71172 14.3306 7.90066 12.7256 9.91992C11.9321 10.9182 11.2792 11.8543 10.8242 12.54C10.5969 12.8826 10.2391 13.4564 10.1191 13.6494C10.0073 13.8394 9.80347 13.957 9.58301 13.958C9.36276 13.9589 9.15838 13.844 9.04492 13.6553C8.46405 12.6872 7.7868 12.01 7.25781 11.5771C6.9936 11.361 6.76688 11.207 6.61035 11.1084C6.53216 11.0592 6.42286 10.9974 6.38379 10.9756L6.27637 10.9072C6.04847 10.7276 5.96962 10.4065 6.10449 10.1367C6.25891 9.82817 6.63471 9.70317 6.94336 9.85742C7.01871 9.8951 7.17878 9.98935 7.27637 10.0508C7.47137 10.1736 7.74019 10.3578 8.04883 10.6104C8.50054 10.9799 9.04109 11.4976 9.56055 12.1865C9.62835 12.0819 9.70238 11.969 9.78223 11.8486C10.2516 11.1412 10.9262 10.1754 11.7471 9.14258C13.3711 7.09938 15.6369 4.70465 18.0723 3.59766Z" fill="#161616"/>
</svg>
