<svg width="24" height="24" viewBox="0 0 24 24" fill="none" xmlns="http://www.w3.org/2000/svg">
<path fill-rule="evenodd" clip-rule="evenodd" d="M12.5742 1.38175C12.7776 1.24181 13.037 1.21149 13.2676 1.29972L21.2676 4.36124C21.5578 4.47235 21.75 4.75068 21.75 5.06144V21.2382H22C22.414 21.2382 22.7498 21.5741 22.75 21.9882C22.75 22.4022 22.4141 22.738 22 22.7382H21.123C21.0829 22.7449 21.042 22.7499 21 22.7499C20.9578 22.7499 20.9163 22.7449 20.876 22.7382L17.1074 22.7401C17.0722 22.7452 17.0366 22.7499 17 22.7499C16.9633 22.7499 16.9269 22.7462 16.8916 22.7411L8.06934 22.746C8.04648 22.7481 8.0234 22.7499 8 22.7499C7.97675 22.7499 7.95338 22.7481 7.93066 22.746L2 22.7499C1.58599 22.7499 1.25024 22.414 1.25 21.9999C1.25002 21.5859 1.58595 21.2502 2 21.2499L2.25 21.2489V12.9941C2.25 12.0276 3.0335 11.2441 4 11.2441H7.25V8.99991C7.25 8.03341 8.0335 7.24991 9 7.24991H12.25V1.99991C12.25 1.75304 12.3708 1.52169 12.5742 1.38175ZM4 12.7441C3.86193 12.7441 3.75 12.856 3.75 12.9941V21.248L7.25 21.246V12.7441H4ZM9 8.74991C8.86193 8.74991 8.75 8.86184 8.75 8.99991V21.245L16.25 21.2411V8.99991C16.25 8.86199 16.1379 8.75015 16 8.74991H9ZM13.75 7.24991H16C16.9663 7.25015 17.75 8.03356 17.75 8.99991V21.2401L20.25 21.2382V5.57706L13.75 3.08976V7.24991ZM13.499 17.2499C13.9131 17.2496 14.2495 17.5849 14.25 17.9989C14.2504 18.4132 13.9142 18.7496 13.5 18.7499L11.5 18.7519C11.0859 18.7521 10.7504 18.416 10.75 18.0019C10.7499 17.5878 11.0849 17.2522 11.499 17.2519L13.499 17.2499ZM13.5 14.2509C13.914 14.2511 14.25 14.5868 14.25 15.0009C14.2499 15.4149 13.914 15.7507 13.5 15.7509H11.5C11.0858 15.7509 10.7501 15.415 10.75 15.0009C10.75 14.5867 11.0858 14.2509 11.5 14.2509H13.5ZM13.5 11.2519C13.914 11.2521 14.25 11.5878 14.25 12.0019C14.2499 12.4158 13.9139 12.7516 13.5 12.7519H11.5C11.0859 12.7519 10.7501 12.416 10.75 12.0019C10.75 11.5877 11.0858 11.2519 11.5 11.2519H13.5Z" fill="#4D0CE7"/>
</svg>
