<svg width="16" height="16" viewBox="0 0 16 16" fill="none" xmlns="http://www.w3.org/2000/svg">
<path fill-rule="evenodd" clip-rule="evenodd" d="M8.00293 0.833008C11.961 0.833008 15.1699 4.04196 15.1699 8C15.1699 11.958 11.961 15.167 8.00293 15.167C4.04489 15.167 0.835938 11.958 0.835938 8C0.835938 4.04196 4.04489 0.833008 8.00293 0.833008ZM8.00293 1.83301C4.59717 1.83301 1.83594 4.59424 1.83594 8C1.83594 11.4058 4.59717 14.167 8.00293 14.167C11.4087 14.167 14.1699 11.4058 14.1699 8C14.1699 4.59424 11.4087 1.83301 8.00293 1.83301ZM8.00293 4.83301C8.27896 4.83301 8.50275 5.05701 8.50293 5.33301V7.79297L9.68945 8.97949C9.88472 9.17476 9.88472 9.49126 9.68945 9.68652C9.49419 9.88179 9.17768 9.88179 8.98242 9.68652L7.64941 8.35352C7.55565 8.25975 7.50293 8.13261 7.50293 8V5.33301C7.50311 5.05701 7.7269 4.83301 8.00293 4.83301Z" fill="#C69815"/>
</svg>
