<svg width="20" height="20" viewBox="0 0 20 20" fill="none" xmlns="http://www.w3.org/2000/svg">
<path fill-rule="evenodd" clip-rule="evenodd" d="M9.99707 1.04199C14.9446 1.04199 18.9551 5.05245 18.9551 10C18.9551 14.9476 14.9446 18.958 9.99707 18.958C5.04952 18.958 1.03906 14.9476 1.03906 10C1.03906 5.05245 5.04952 1.04199 9.99707 1.04199ZM9.99707 2.29199C5.73988 2.29199 2.28906 5.74281 2.28906 10C2.28906 14.2572 5.73988 17.708 9.99707 17.708C14.2543 17.708 17.7051 14.2572 17.7051 10C17.7051 5.74281 14.2543 2.29199 9.99707 2.29199ZM9.99707 6.04199C10.3422 6.04199 10.6221 6.32181 10.6221 6.66699V9.74121L12.1055 11.2246C12.3495 11.4687 12.3495 11.8643 12.1055 12.1084C11.8614 12.3525 11.4658 12.3525 11.2217 12.1084L9.55469 10.4424C9.43748 10.3252 9.37207 10.1658 9.37207 10V6.66699C9.37207 6.32181 9.65189 6.04199 9.99707 6.04199Z" fill="#4D0CE7"/>
</svg>
