<svg width="22" height="18" viewBox="0 0 22 18" fill="none" xmlns="http://www.w3.org/2000/svg">
<path d="M18.75 0C20.2688 0 21.5 1.23122 21.5 2.75V14.75C21.5 16.2688 20.2688 17.5 18.75 17.5H2.75C1.23122 17.5 6.44256e-08 16.2688 0 14.75V2.75C0 1.23122 1.23122 1.53011e-07 2.75 0H18.75ZM1.5 6.5V14.75C1.5 15.4404 2.05964 16 2.75 16H18.75C19.4404 16 20 15.4404 20 14.75V6.5H1.5ZM10.25 12C10.6642 12 11 12.3358 11 12.75C11 13.1642 10.6642 13.5 10.25 13.5H8.75C8.33579 13.5 8 13.1642 8 12.75C8 12.3358 8.33579 12 8.75 12H10.25ZM16.75 12C17.1642 12 17.5 12.3358 17.5 12.75C17.5 13.1642 17.1642 13.5 16.75 13.5H13.25C12.8358 13.5 12.5 13.1642 12.5 12.75C12.5 12.3358 12.8358 12 13.25 12H16.75ZM2.75 1.5C2.05964 1.5 1.5 2.05964 1.5 2.75V5H20V2.75C20 2.05964 19.4404 1.5 18.75 1.5H2.75Z" fill="#48A1FF"/>
</svg>
