<svg width="20" height="20" viewBox="0 0 20 20" fill="none" xmlns="http://www.w3.org/2000/svg">
<path d="M16.6641 2.70801C17.9296 2.70818 18.9551 3.73446 18.9551 5V15C18.9551 16.2655 17.9296 17.2918 16.6641 17.292H3.33008C2.06458 17.2918 1.03906 16.2655 1.03906 15V5C1.03906 3.73446 2.06458 2.70818 3.33008 2.70801H16.6641ZM2.28906 8.125V15C2.28906 15.5752 2.75493 16.0418 3.33008 16.042H16.6641C17.2392 16.0418 17.7051 15.5752 17.7051 15V8.125H2.28906ZM9.58008 12.708C9.92515 12.708 10.2049 12.988 10.2051 13.333C10.2051 13.6782 9.92526 13.958 9.58008 13.958H8.33008C7.98505 13.9578 7.70508 13.6781 7.70508 13.333C7.70525 12.9881 7.98516 12.7082 8.33008 12.708H9.58008ZM14.9971 12.708C15.3421 12.708 15.6219 12.988 15.6221 13.333C15.6221 13.6782 15.3422 13.958 14.9971 13.958H12.0801C11.7351 13.9578 11.4551 13.6781 11.4551 13.333C11.4553 12.9881 11.7352 12.7082 12.0801 12.708H14.9971ZM3.33008 3.95801C2.75493 3.95818 2.28906 4.42481 2.28906 5V6.875H17.7051V5C17.7051 4.42481 17.2392 3.95818 16.6641 3.95801H3.33008Z" fill="#DC6803"/>
</svg>
