<svg width="20" height="20" viewBox="0 0 20 20" fill="none" xmlns="http://www.w3.org/2000/svg">
<path fill-rule="evenodd" clip-rule="evenodd" d="M11.5312 1.04199C12.198 1.04199 12.8008 1.43993 13.0635 2.05273L13.8809 3.95801H16.6074C16.6104 3.95801 16.6133 3.9589 16.6162 3.95898H17.498C17.9581 3.95916 18.3311 4.33284 18.3311 4.79297C18.3308 5.25287 17.958 5.6258 17.498 5.62598H16.8115L16.1348 16.8057C16.0613 18.0151 15.0584 18.958 13.8467 18.958H6.15137C4.93968 18.958 3.93678 18.0151 3.86328 16.8057L3.18555 5.62598H2.49805C2.03797 5.62598 1.66433 5.25298 1.66406 4.79297C1.66406 4.33273 2.03781 3.95898 2.49805 3.95898H3.4043C3.40722 3.9589 3.41014 3.95801 3.41309 3.95801H6.11523L6.93164 2.05273C7.19427 1.43993 7.79716 1.042 8.46387 1.04199H11.5312ZM7.91797 8.125C7.57279 8.125 7.29297 8.40482 7.29297 8.75V13.75C7.29297 14.0952 7.57279 14.375 7.91797 14.375C8.263 14.3748 8.54297 14.0951 8.54297 13.75V8.75C8.54297 8.40493 8.263 8.12517 7.91797 8.125ZM12.084 8.125C11.739 8.12519 11.459 8.40494 11.459 8.75V13.75C11.459 14.0951 11.739 14.3748 12.084 14.375C12.4292 14.375 12.709 14.0952 12.709 13.75V8.75C12.709 8.40483 12.4292 8.12501 12.084 8.125ZM8.57422 2.70898C8.50755 2.70898 8.44716 2.74927 8.4209 2.81055L7.92871 3.95801H12.0674L11.5752 2.81055C11.549 2.74933 11.4885 2.70906 11.4219 2.70898H8.57422Z" fill="#F04438"/>
</svg>
