<svg width="24" height="24" viewBox="0 0 24 24" fill="none" xmlns="http://www.w3.org/2000/svg">
<path fill-rule="evenodd" clip-rule="evenodd" d="M9.66504 2.32906C10.0354 2.14416 10.4857 2.29466 10.6709 2.66499C10.8559 3.03543 10.7054 3.48565 10.335 3.67085L5.44141 6.11812C5.01793 6.32986 4.75 6.76282 4.75 7.23628V16.7636C4.75 17.2371 5.01793 17.67 5.44141 17.8818L10.335 20.3291C10.7054 20.5143 10.8561 20.9654 10.6709 21.3359C10.4856 21.7061 10.0354 21.8558 9.66504 21.6709L4.77051 19.2236C3.83885 18.7578 3.25 17.8052 3.25 16.7636V7.23628C3.25 6.19466 3.83885 5.24215 4.77051 4.77632L9.66504 2.32906ZM11.9697 8.96968C12.2626 8.67679 12.7374 8.67679 13.0303 8.96968C13.3232 9.26257 13.3232 9.73733 13.0303 10.0302L11.8105 11.25H20C20.4142 11.25 20.75 11.5857 20.75 12C20.75 12.4142 20.4142 12.75 20 12.75H11.8105L13.0303 13.9697C13.3232 14.2626 13.3232 14.7373 13.0303 15.0302C12.7374 15.3231 12.2626 15.3231 11.9697 15.0302L9.46973 12.5302C9.17683 12.2373 9.17683 11.7626 9.46973 11.4697L11.9697 8.96968Z" fill="#D92D20"/>
</svg>
