<svg width="20" height="20" viewBox="0 0 20 20" fill="none" xmlns="http://www.w3.org/2000/svg">
<path d="M9.99707 1.04199C10.3422 1.04199 10.6221 1.32181 10.6221 1.66699V2.73047C11.9586 2.82395 13.1788 3.21466 14.1172 3.82129C15.1937 4.51725 15.9697 5.55242 15.9697 6.79004C15.9697 7.13507 15.6897 7.4148 15.3447 7.41504C14.9995 7.41504 14.7197 7.13522 14.7197 6.79004C14.7197 6.11858 14.2972 5.42621 13.4385 4.87109C12.7178 4.40521 11.7382 4.07434 10.6221 3.9834V9.1377C12.3077 9.18654 13.685 9.44262 14.6826 10.0127C15.2543 10.3394 15.707 10.773 16.0127 11.3262C16.3169 11.8768 16.4551 12.5102 16.4551 13.21C16.455 14.7212 15.631 15.7759 14.4131 16.417C13.3795 16.9609 12.0476 17.221 10.6221 17.2783V18.333C10.6221 18.6782 10.3422 18.958 9.99707 18.958C9.65189 18.958 9.37207 18.6782 9.37207 18.333V17.2725C7.91132 17.1858 6.57709 16.7979 5.55371 16.1914C4.3998 15.5076 3.5391 14.4741 3.53906 13.21C3.53906 12.8648 3.81888 12.585 4.16406 12.585C4.50909 12.5851 4.78906 12.8649 4.78906 13.21C4.7891 13.8547 5.23358 14.549 6.19043 15.1162C7.00226 15.5973 8.11128 15.9345 9.37207 16.0195V10.3662C7.70664 10.3147 6.43765 10.0505 5.54785 9.52539C5.03665 9.22367 4.64564 8.83421 4.3877 8.35449C4.13134 7.87767 4.02441 7.34717 4.02441 6.79004C4.02445 5.55242 4.80039 4.51725 5.87695 3.82129C6.81534 3.21466 8.03558 2.82395 9.37207 2.73047V1.66699C9.37207 1.32181 9.65189 1.04199 9.99707 1.04199ZM10.6221 16.0264C11.9178 15.9694 13.0293 15.7335 13.8311 15.3115C14.7242 14.8415 15.205 14.1676 15.2051 13.21C15.2051 12.6754 15.1006 12.2595 14.9189 11.9307C14.7386 11.6043 14.4619 11.3274 14.0615 11.0986C13.3284 10.6798 12.2051 10.437 10.6221 10.3877V16.0264ZM9.37207 3.9834C8.25596 4.07434 7.27635 4.40521 6.55566 4.87109C5.69697 5.42621 5.27445 6.11858 5.27441 6.79004C5.27441 7.18742 5.3507 7.50501 5.48926 7.7627C5.62626 8.01737 5.84335 8.24894 6.18262 8.44922C6.80604 8.81717 7.81845 9.06534 9.37207 9.11719V3.9834Z" fill="white"/>
</svg>
