<svg width="20" height="20" viewBox="0 0 20 20" fill="none" xmlns="http://www.w3.org/2000/svg">
<path d="M9.99707 1.04199C14.9446 1.04199 18.9551 5.05245 18.9551 10C18.9551 14.9476 14.9446 18.958 9.99707 18.958C5.04952 18.958 1.03906 14.9476 1.03906 10C1.03906 5.05245 5.04952 1.04199 9.99707 1.04199ZM9.99707 2.29199C5.73988 2.29199 2.28906 5.74281 2.28906 10C2.28906 14.2572 5.73988 17.708 9.99707 17.708C14.2543 17.708 17.7051 14.2572 17.7051 10C17.7051 5.74281 14.2543 2.29199 9.99707 2.29199ZM9.99707 4.79199C10.3422 4.79199 10.6221 5.07181 10.6221 5.41699V6.0957C11.1382 6.18561 11.6115 6.3852 11.9941 6.67383C12.5273 7.07603 12.9141 7.67896 12.9141 8.39551C12.9138 8.74039 12.634 9.02033 12.2891 9.02051C11.944 9.02051 11.6643 8.7405 11.6641 8.39551C11.6641 8.15755 11.5374 7.89525 11.2412 7.67188C10.9447 7.44827 10.5069 7.29199 9.99707 7.29199C9.48723 7.29199 9.0494 7.44827 8.75293 7.67188C8.45678 7.89525 8.33008 8.15755 8.33008 8.39551C8.33016 8.71823 8.42422 8.8715 8.58105 8.97949C8.78863 9.1222 9.20621 9.25195 9.99707 9.25195C10.8671 9.25195 11.6455 9.37561 12.2188 9.75781C12.8461 10.176 13.1221 10.8277 13.1221 11.6055C13.1219 12.4511 12.7194 13.0795 12.0918 13.4648C11.6665 13.726 11.155 13.8673 10.6221 13.9258V14.583C10.6221 14.9282 10.3422 15.208 9.99707 15.208C9.65189 15.208 9.37207 14.9282 9.37207 14.583V13.9121C8.80938 13.8277 8.29233 13.63 7.87402 13.3408C7.30731 12.949 6.87226 12.346 6.87207 11.6055C6.87207 11.2603 7.15189 10.9805 7.49707 10.9805C7.84225 10.9805 8.12207 11.2603 8.12207 11.6055C8.12226 11.8192 8.24728 12.08 8.58496 12.3135C8.92038 12.5452 9.41778 12.708 9.99707 12.708C10.6287 12.708 11.1227 12.5926 11.4375 12.3994C11.7145 12.2294 11.8719 11.9939 11.8721 11.6055C11.8721 11.1487 11.7314 10.9352 11.5254 10.7979C11.2654 10.6245 10.7937 10.502 9.99707 10.502C9.122 10.502 8.39379 10.3679 7.87207 10.0088C7.29992 9.61481 7.08017 9.02692 7.08008 8.39551C7.08008 7.67896 7.4668 7.07603 8 6.67383C8.38268 6.3852 8.85598 6.18561 9.37207 6.0957V5.41699C9.37207 5.07181 9.65189 4.79199 9.99707 4.79199Z" fill="#697586"/>
</svg>
