<svg width="26" height="26" viewBox="0 0 26 26" fill="none" xmlns="http://www.w3.org/2000/svg">
<rect width="26" height="26" rx="13" fill="white" fill-opacity="0.8"/>
<path d="M14.75 21.5H11.25V4.5H14.75V21.5Z" stroke="#E5E7EB"/>
<g clip-path="url(#clip0_6483_175001)">
<path d="M13 16.0938C12.5939 16.0938 12.2044 16.2551 11.9172 16.5422C11.6301 16.8294 11.4688 17.2189 11.4688 17.625C11.4688 18.0311 11.6301 18.4206 11.9172 18.7078C12.2044 18.9949 12.5939 19.1562 13 19.1562C13.4061 19.1562 13.7956 18.9949 14.0828 18.7078C14.3699 18.4206 14.5312 18.0311 14.5312 17.625C14.5312 17.2189 14.3699 16.8294 14.0828 16.5422C13.7956 16.2551 13.4061 16.0938 13 16.0938ZM13 11.7188C12.5939 11.7188 12.2044 11.8801 11.9172 12.1672C11.6301 12.4544 11.4688 12.8439 11.4688 13.25C11.4688 13.6561 11.6301 14.0456 11.9172 14.3328C12.2044 14.6199 12.5939 14.7812 13 14.7812C13.4061 14.7812 13.7956 14.6199 14.0828 14.3328C14.3699 14.0456 14.5312 13.6561 14.5312 13.25C14.5312 12.8439 14.3699 12.4544 14.0828 12.1672C13.7956 11.8801 13.4061 11.7188 13 11.7188ZM14.5312 8.875C14.5312 8.46889 14.3699 8.07941 14.0828 7.79224C13.7956 7.50508 13.4061 7.34375 13 7.34375C12.5939 7.34375 12.2044 7.50508 11.9172 7.79224C11.6301 8.07941 11.4688 8.46889 11.4688 8.875C11.4688 9.28111 11.6301 9.67059 11.9172 9.95776C12.2044 10.2449 12.5939 10.4062 13 10.4062C13.4061 10.4062 13.7956 10.2449 14.0828 9.95776C14.3699 9.67059 14.5312 9.28111 14.5312 8.875Z" fill="#4B5563"/>
</g>
<defs>
<clipPath id="clip0_6483_175001">
<path d="M11.25 6.25H14.75V20.25H11.25V6.25Z" fill="white"/>
</clipPath>
</defs>
</svg>
