<svg width="16" height="16" viewBox="0 0 16 16" fill="none" xmlns="http://www.w3.org/2000/svg">
<g clip-path="url(#clip0_9103_215309)">
<path d="M7.15625 3.38237C8.70917 3.1973 10.28 3.52558 11.6288 4.31707C12.9777 5.10855 14.0304 6.31975 14.6263 7.7657C14.6818 7.91538 14.6818 8.08002 14.6263 8.2297C14.3812 8.8237 14.0575 9.38204 13.6636 9.8897" stroke="#6A7282" stroke-linecap="round" stroke-linejoin="round"/>
<path d="M9.38942 9.43737C9.01222 9.80169 8.50701 10.0033 7.98262 9.99872C7.45823 9.99417 6.9566 9.78383 6.58579 9.41301C6.21497 9.0422 6.00463 8.54057 6.00008 8.01618C5.99552 7.49178 6.19711 6.98658 6.56142 6.60938" stroke="#6A7282" stroke-linecap="round" stroke-linejoin="round"/>
<path d="M11.6556 11.6665C10.7713 12.1904 9.78458 12.5179 8.76251 12.6268C7.74045 12.7357 6.70691 12.6235 5.73203 12.2978C4.75715 11.972 3.86374 11.4404 3.11242 10.739C2.36109 10.0376 1.76944 9.18275 1.37761 8.23251C1.32205 8.08283 1.32205 7.91819 1.37761 7.76851C1.9687 6.33508 3.00872 5.13201 4.34161 4.33984" stroke="#6A7282" stroke-linecap="round" stroke-linejoin="round"/>
<path d="M1.33594 1.33203L14.6693 14.6654" stroke="#6A7282" stroke-linecap="round" stroke-linejoin="round"/>
</g>
<defs>
<clipPath id="clip0_9103_215309">
<rect width="16" height="16" fill="white"/>
</clipPath>
</defs>
</svg>
