<svg width="17" height="18" viewBox="0 0 17 18" fill="none" xmlns="http://www.w3.org/2000/svg">
<path d="M6.9248 4.53144e-05C7.4275 -0.000372712 7.82482 -0.000595631 8.19727 0.130905C8.27426 0.158088 8.35018 0.189414 8.42383 0.224655C8.77977 0.395082 9.0602 0.675713 9.41504 1.0313C9.43515 1.05145 9.45595 1.07219 9.47656 1.09282L13.4238 5.04204C13.4478 5.06604 13.4717 5.08991 13.4951 5.11333C13.9072 5.5248 14.2337 5.85063 14.4092 6.27446C14.5845 6.69816 14.5836 7.15896 14.583 7.74126V9.79594C14.5829 10.1411 14.3031 10.4209 13.958 10.4209C13.613 10.4208 13.3331 10.141 13.333 9.79594V7.84184C13.333 7.47694 13.3305 7.24613 13.3193 7.08598H13.0791C11.9397 7.086 11.0212 7.08546 10.2988 6.98833C9.54869 6.88743 8.91663 6.67177 8.41504 6.16997C7.91355 5.66821 7.69751 5.03647 7.59668 4.28618C7.49955 3.56343 7.49998 2.64413 7.5 1.50395V1.26079C7.36098 1.25192 7.15957 1.25005 6.83789 1.25005C5.47085 1.25005 4.49969 1.25082 3.75391 1.33794C3.02188 1.42345 2.58754 1.58461 2.25879 1.84965C2.10846 1.97091 1.97082 2.10843 1.84961 2.25883C1.58462 2.58779 1.42339 3.02248 1.33789 3.75493C1.2508 4.50115 1.25 5.47309 1.25 6.84087V10.629C1.25 12.2186 1.25107 13.3483 1.36621 14.2051C1.47891 15.0437 1.69043 15.5271 2.04297 15.8799C2.62289 16.4601 3.52428 16.6355 5.63379 16.6661C5.97893 16.6711 6.255 16.9557 6.25 17.3008C6.24485 17.6457 5.96114 17.9209 5.61621 17.9161C3.5933 17.8868 2.15105 17.756 1.15918 16.7637C0.535666 16.1399 0.259268 15.3484 0.12793 14.3711C0.000349182 13.4215 -1.30318e-05 12.2078 1.78814e-07 10.6758V6.80083C-9.70496e-06 5.48232 0.000168685 4.43749 0.0966799 3.6104C0.195751 2.7615 0.403798 2.06182 0.876953 1.47465C1.05408 1.25487 1.25394 1.05421 1.47363 0.876998C2.06064 0.403506 2.76068 0.195859 3.60938 0.096725C4.43611 0.000187856 5.4801 3.53822e-05 6.79785 4.53144e-05H6.9248ZM11.458 11.6661C12.8262 11.6661 14.0094 12.4022 14.8037 13.0606C15.2093 13.3968 15.5361 13.7317 15.7617 13.9825C15.875 14.1083 15.964 14.2145 16.0254 14.2901C16.0542 14.3256 16.1023 14.3877 16.1221 14.4131L16.126 14.418C16.2873 14.6345 16.2906 14.9294 16.1367 15.1495C16.133 15.1543 16.1267 15.1622 16.1191 15.1719C16.0928 15.206 16.0492 15.2636 16.0254 15.293C15.964 15.3686 15.8749 15.4739 15.7617 15.5997C15.536 15.8505 15.2096 16.186 14.8037 16.5225C14.0094 17.1809 12.8262 17.9161 11.458 17.9161C10.09 17.916 8.90751 17.1808 8.11328 16.5225C7.70728 16.186 7.38004 15.8506 7.1543 15.5997C7.04116 15.4739 6.95198 15.3686 6.89063 15.293C6.86164 15.2573 6.81348 15.1941 6.79395 15.169L6.79102 15.1651C6.62557 14.9434 6.62557 14.6388 6.79102 14.417L6.81934 14.3799C6.83613 14.3583 6.85999 14.3278 6.89063 14.2901C6.95202 14.2145 7.04106 14.1083 7.1543 13.9825C7.38002 13.7316 7.7074 13.397 8.11328 13.0606C8.90751 12.4023 10.0899 11.6661 11.458 11.6661ZM11.459 12.9161C10.526 12.9161 9.6249 13.4309 8.91113 14.0225C8.57751 14.299 8.30312 14.5767 8.1084 14.7911C8.30312 15.0055 8.5775 15.284 8.91113 15.5606C9.62488 16.1522 10.5261 16.6661 11.459 16.6661C12.3917 16.6659 13.2922 16.1521 14.0059 15.5606C14.3395 15.284 14.6139 15.0055 14.8086 14.7911C14.6139 14.5767 14.3395 14.299 14.0059 14.0225C13.2922 13.431 12.3918 12.9162 11.459 12.9161ZM11.458 13.9581C11.918 13.9582 12.2908 14.3311 12.291 14.7911C12.291 15.2512 11.9181 15.6249 11.458 15.625H11.4502C10.99 15.625 10.6172 15.2513 10.6172 14.7911C10.6174 14.331 10.9901 13.9581 11.4502 13.9581H11.458ZM8.75098 2.13481C8.75403 2.98077 8.7683 3.61556 8.83594 4.11919C8.91813 4.73077 9.0683 5.05541 9.29883 5.28618C9.52944 5.51689 9.85357 5.6678 10.4648 5.75005C10.9683 5.81777 11.6032 5.83195 12.4492 5.83501L8.75098 2.13481Z" fill="#161616"/>
</svg>
