<svg width="24" height="24" viewBox="0 0 24 24" fill="none" xmlns="http://www.w3.org/2000/svg">
<path fill-rule="evenodd" clip-rule="evenodd" d="M14.0003 21.2495C14.4143 21.2496 14.7502 21.5855 14.7503 21.9995C14.7503 22.4136 14.4144 22.7493 14.0003 22.7495H10.0003C9.58613 22.7495 9.25034 22.4137 9.25034 21.9995C9.2505 21.5854 9.58623 21.2495 10.0003 21.2495H14.0003ZM11.0033 1.58249C11.6444 1.33318 12.3563 1.33318 12.9974 1.58249L19.2503 4.01414V2.99949C19.2505 2.58541 19.5862 2.24949 20.0003 2.24949C20.4143 2.24963 20.7502 2.5855 20.7503 2.99949V4.59812L21.2718 4.80124C21.6579 4.95138 21.8497 5.3859 21.6996 5.77195C21.5522 6.15079 21.1309 6.34056 20.7503 6.20554V18.9995C20.7503 19.4136 20.4144 19.7493 20.0003 19.7495H4.00034C3.58613 19.7495 3.25034 19.4137 3.25034 18.9995V6.20554C2.86979 6.34063 2.44855 6.1508 2.30112 5.77195C2.15099 5.3859 2.34281 4.95138 2.72886 4.80124L11.0033 1.58249ZM12.4535 2.98093C12.1621 2.86761 11.8386 2.86761 11.5472 2.98093L4.75034 5.62351V18.2495H9.25034V13.9995C9.2505 12.4808 10.4817 11.2495 12.0003 11.2495C13.5189 11.2496 14.7502 12.4809 14.7503 13.9995V18.2495H19.2503V5.62351L12.4535 2.98093ZM12.0003 12.7495C11.3101 12.7495 10.7505 13.3093 10.7503 13.9995V18.2495H13.2503V13.9995C13.2502 13.3094 12.6905 12.7496 12.0003 12.7495ZM12.0121 6.99949C12.5642 6.99953 13.0119 7.44737 13.0121 7.99949C13.0121 8.55174 12.5643 8.99944 12.0121 8.99949H12.0003C11.4481 8.99949 11.0003 8.55177 11.0003 7.99949C11.0005 7.44734 11.4482 6.99949 12.0003 6.99949H12.0121Z" fill="#4D0CE7"/>
</svg>
