<svg width="20" height="20" viewBox="0 0 20 20" fill="none" xmlns="http://www.w3.org/2000/svg">
<path d="M8.71777 1.86426C9.48984 1.32328 10.5171 1.32316 11.2891 1.86426L17.5879 6.2793C18.312 6.78685 18.6707 7.67259 18.5039 8.54102L16.9326 16.7207C16.7298 17.7767 15.8069 18.5419 14.7314 18.542H5.27539C4.20002 18.542 3.27629 17.7775 3.07324 16.7217L1.50098 8.54102C1.33421 7.67265 1.69293 6.78686 2.41699 6.2793L8.71777 1.86426ZM10.5713 2.8877C10.2299 2.64861 9.77588 2.64851 9.43457 2.8877L3.13477 7.30273C2.81426 7.52734 2.65445 7.92028 2.72852 8.30566L4.30078 16.4854C4.39081 16.9538 4.80044 17.292 5.27539 17.292H6.87695L6.87891 14.166C6.87936 13.3609 7.53279 12.708 8.33789 12.708H11.6689C12.4742 12.7082 13.127 13.3617 13.127 14.167V17.292H14.7314C15.2063 17.2919 15.6151 16.9538 15.7051 16.4854L17.2764 8.30566C17.3504 7.92041 17.1914 7.52735 16.8711 7.30273L10.5713 2.8877ZM8.33789 13.958C8.223 13.958 8.12917 14.0512 8.12891 14.166L8.12695 17.292H11.877V14.167C11.877 14.0521 11.7838 13.9582 11.6689 13.958H8.33789Z" fill="white"/>
</svg>
