<svg width="32" height="32" viewBox="0 0 32 32" fill="none" xmlns="http://www.w3.org/2000/svg">
<path fill-rule="evenodd" clip-rule="evenodd" d="M15.3359 2.33301C15.8881 2.33301 16.3358 2.78087 16.3359 3.33301C16.3359 3.88529 15.8882 4.33301 15.3359 4.33301H6.00293C5.08246 4.33301 4.33594 5.07953 4.33594 6V26C4.33594 26.9205 5.08246 27.667 6.00293 27.667H6.95117L18.4629 17.3057C19.7084 16.1847 21.5559 16.051 22.9502 16.9805L27.6699 20.127V16.667C27.6699 16.1147 28.1176 15.667 28.6699 15.667C29.2221 15.6672 29.6699 16.1148 29.6699 16.667V26C29.6699 28.025 28.028 29.667 26.0029 29.667H6.00293C3.97789 29.667 2.33594 28.025 2.33594 26V6C2.33594 3.97496 3.97789 2.33301 6.00293 2.33301H15.3359ZM21.8408 18.6445C21.2071 18.222 20.3669 18.2825 19.8008 18.792L9.94141 27.667H26.0029C26.9234 27.667 27.6699 26.9205 27.6699 26V22.5303L21.8408 18.6445ZM24.0029 2.33301C24.5551 2.33301 25.0028 2.78087 25.0029 3.33301V7H28.6699C29.2221 7.00018 29.6699 7.44782 29.6699 8C29.6699 8.55218 29.2221 8.99982 28.6699 9H25.0029V12.667C25.0028 13.2191 24.5551 13.667 24.0029 13.667C23.4508 13.667 23.0031 13.2191 23.0029 12.667V9H19.3359C18.7838 8.99982 18.3359 8.55218 18.3359 8C18.3359 7.44782 18.7838 7.00018 19.3359 7H23.0029V3.33301C23.0031 2.78087 23.4508 2.33301 24.0029 2.33301Z" fill="#697586"/>
</svg>
