<svg width="20" height="20" viewBox="0 0 20 20" fill="none" xmlns="http://www.w3.org/2000/svg">
<path d="M14.4072 14.8105C14.5119 14.4817 14.8635 14.2997 15.1924 14.4043C15.7867 14.5934 16.2869 14.8824 16.6494 15.2168C16.9901 15.531 17.2949 15.9694 17.2949 16.4619C17.2947 17.0425 16.8812 17.452 16.4912 17.7109C16.0772 17.9858 15.5191 18.2089 14.8857 18.3867C13.6102 18.7449 11.8842 18.959 10.0029 18.959C8.12168 18.959 6.39562 18.7449 5.12012 18.3867C4.48677 18.2089 3.92871 17.9858 3.51465 17.7109C3.12467 17.452 2.71111 17.0425 2.71094 16.4619C2.71094 15.9694 3.0158 15.531 3.35645 15.2168C3.71894 14.8824 4.21915 14.5934 4.81348 14.4043C5.14235 14.2997 5.49396 14.4817 5.59863 14.8105C5.70328 15.1395 5.52132 15.4911 5.19238 15.5957C4.74944 15.7366 4.41562 15.9406 4.2041 16.1357C4.02298 16.3028 3.97654 16.4176 3.96484 16.4521C3.98029 16.48 4.03431 16.5559 4.20605 16.6699C4.46671 16.8429 4.88524 17.0228 5.45801 17.1836C6.59535 17.5029 8.20243 17.709 10.0029 17.709C11.8034 17.709 13.4105 17.5029 14.5479 17.1836C15.1206 17.0228 15.5392 16.8429 15.7998 16.6699C15.9716 16.5559 16.0256 16.48 16.041 16.4521C16.0293 16.4176 15.9829 16.3028 15.8018 16.1357C15.5902 15.9406 15.2564 15.7366 14.8135 15.5957C14.4845 15.4911 14.3026 15.1395 14.4072 14.8105ZM10.0029 1.04199C13.5862 1.04199 16.4609 4.02482 16.4609 7.66699C16.4608 9.89309 15.2726 11.6704 13.9951 12.9404C12.7144 14.2137 11.2801 15.043 10.6318 15.3838C10.2356 15.5921 9.77023 15.5921 9.37402 15.3838C8.7258 15.043 7.29149 14.2137 6.01074 12.9404C4.73325 11.6704 3.54504 9.89309 3.54492 7.66699C3.54492 4.02482 6.41961 1.04199 10.0029 1.04199ZM10.0029 2.29199C7.14293 2.29199 4.79492 4.68175 4.79492 7.66699C4.79504 9.4247 5.73243 10.9022 6.8916 12.0547C8.04739 13.2037 9.3604 13.9642 9.95605 14.2773C9.98813 14.2942 10.0177 14.2942 10.0498 14.2773C10.6455 13.9642 11.9585 13.2037 13.1143 12.0547C14.2734 10.9022 15.2108 9.4247 15.2109 7.66699C15.2109 4.68175 12.8629 2.29199 10.0029 2.29199ZM10.0029 4.79199C11.4987 4.79199 12.7109 6.00423 12.7109 7.5C12.7109 8.99577 11.4987 10.208 10.0029 10.208C8.50716 10.208 7.29492 8.99577 7.29492 7.5C7.29492 6.00423 8.50716 4.79199 10.0029 4.79199ZM10.0029 6.04199C9.19751 6.04199 8.54492 6.69458 8.54492 7.5C8.54492 8.30542 9.19751 8.95801 10.0029 8.95801C10.8083 8.95801 11.4609 8.30542 11.4609 7.5C11.4609 6.69458 10.8083 6.04199 10.0029 6.04199Z" fill="white"/>
</svg>
