<svg width="16" height="16" viewBox="0 0 16 16" fill="none" xmlns="http://www.w3.org/2000/svg">
<path fill-rule="evenodd" clip-rule="evenodd" d="M8.00293 0.833008C11.3846 0.833008 14.1699 3.44579 14.1699 6.7207C14.1698 8.49148 13.3014 9.8379 12.248 10.9902C11.7554 11.5292 11.2087 12.04 10.6797 12.5342C10.645 12.5666 10.6107 12.5996 10.5762 12.6318C10.0088 13.1622 9.46478 13.6752 8.99316 14.2148C8.47647 14.8061 7.52592 14.7864 7.02637 14.1924C6.56669 13.6458 6.02935 13.1336 5.46387 12.6094C5.38738 12.5385 5.30989 12.4671 5.23242 12.3955C4.7444 11.9448 4.24161 11.4802 3.78516 10.9932C2.721 9.85775 1.83601 8.5255 1.83594 6.7207C1.83594 3.44579 4.62131 0.833008 8.00293 0.833008ZM8.00293 1.83301C5.12532 1.83301 2.83594 4.04514 2.83594 6.7207C2.83601 8.15581 3.52435 9.25297 4.51465 10.3096C4.94447 10.7682 5.41833 11.2057 5.9082 11.6582C5.98626 11.7303 6.06476 11.8029 6.14355 11.876C6.70975 12.4008 7.28839 12.95 7.79199 13.5488C7.90275 13.6804 8.13299 13.6794 8.24023 13.5566C8.7496 12.9738 9.32878 12.4284 9.89258 11.9014C9.92474 11.8713 9.95721 11.8405 9.98926 11.8105C10.5255 11.3096 11.0448 10.8241 11.5098 10.3154C12.4921 9.24082 13.1698 8.12756 13.1699 6.7207C13.1699 4.04514 10.8805 1.83301 8.00293 1.83301ZM8.00293 4.16699C9.56774 4.16699 10.8359 5.43519 10.8359 7C10.8359 8.56481 9.56774 9.83301 8.00293 9.83301C6.43812 9.83301 5.16992 8.56481 5.16992 7C5.16992 5.43519 6.43812 4.16699 8.00293 4.16699ZM8.00293 5.16699C6.99041 5.16699 6.16992 5.98748 6.16992 7C6.16992 8.01252 6.99041 8.83301 8.00293 8.83301C9.01545 8.83301 9.83594 8.01252 9.83594 7C9.83594 5.98748 9.01545 5.16699 8.00293 5.16699Z" fill="#9AA4B2"/>
</svg>
