<svg width="24" height="24" viewBox="0 0 24 24" fill="none" xmlns="http://www.w3.org/2000/svg">
<path fill-rule="evenodd" clip-rule="evenodd" d="M11.4699 1.46966C11.7628 1.17678 12.2375 1.17678 12.5304 1.46966L13.8029 2.74212C14.0882 3.02734 14.4938 3.15697 14.8918 3.09075L16.8771 2.7597C17.1651 2.71182 17.4546 2.83597 17.6193 3.07708C17.784 3.31819 17.7941 3.63287 17.6447 3.88372L15.8498 6.89446C16.0465 7.03186 16.231 7.19098 16.3986 7.37298C17.3561 8.41324 18.521 9.84371 19.5216 11.456C20.518 13.0614 21.3787 14.891 21.6828 16.7206C21.9734 18.4698 21.3014 20.005 20.1466 21.0771C19.0035 22.1383 17.3828 22.7576 15.6925 22.7577H8.30875C6.61818 22.7577 4.99696 22.1385 3.85367 21.0771C2.69893 20.005 2.02697 18.4698 2.31754 16.7206C2.62165 14.891 3.48327 13.0614 4.47965 11.456C5.48022 9.84383 6.64422 8.41318 7.60172 7.37298C7.76904 7.1912 7.9531 7.03176 8.14957 6.89446L6.35562 3.88372C6.20625 3.63287 6.21635 3.31819 6.38101 3.07708C6.54569 2.83597 6.83519 2.71182 7.1232 2.7597L9.10855 3.09075C9.50654 3.15697 9.91206 3.02734 10.1974 2.74212L11.4699 1.46966ZM10.2189 7.75775C9.62584 7.75775 9.07817 7.98348 8.70523 8.38861C7.79563 9.37678 6.69382 10.7328 5.75406 12.247C4.81006 13.7681 4.05628 15.4063 3.79703 16.9658C3.59947 18.1543 4.03878 19.2018 4.87418 19.9775C5.72124 20.7639 6.97028 21.2577 8.30875 21.2577H15.6925C17.0308 21.2576 18.2792 20.7637 19.1261 19.9775C19.9616 19.2018 20.4009 18.1544 20.2033 16.9658C19.944 15.4063 19.1902 13.7681 18.2462 12.247C17.3065 10.7329 16.2046 9.37674 15.2951 8.38861C14.9222 7.98363 14.3753 7.75778 13.7824 7.75775H10.2189ZM12.0002 10.2499C12.4144 10.2499 12.7502 10.5857 12.7502 10.9999V11.3349C13.5388 11.5156 14.2347 11.9806 14.5646 12.6806C14.741 13.0552 14.5808 13.5021 14.2062 13.6786C13.8315 13.8552 13.3847 13.694 13.2082 13.3193C13.0908 13.0705 12.6683 12.7499 12.0002 12.7499C11.5947 12.7499 11.2564 12.8741 11.0363 13.039C10.8164 13.2039 10.7502 13.3747 10.7502 13.4999C10.7502 13.6252 10.8164 13.796 11.0363 13.9609C11.2564 14.1258 11.5947 14.2499 12.0002 14.2499C12.6989 14.2499 13.3607 14.4611 13.8644 14.8388C14.3684 15.2168 14.7502 15.7967 14.7502 16.4999C14.7502 17.2031 14.3684 17.7831 13.8644 18.1611C13.546 18.3998 13.1642 18.5715 12.7502 18.6659V18.9999C12.7502 19.4141 12.4144 19.7499 12.0002 19.7499C11.5859 19.7499 11.2502 19.4141 11.2502 18.9999V18.665C10.4615 18.4843 9.76558 18.0193 9.4357 17.3193C9.25931 16.9446 9.41949 16.4978 9.7941 16.3212C10.1688 16.1446 10.6156 16.3059 10.7921 16.6806C10.9095 16.9293 11.332 17.2499 12.0002 17.2499C12.4056 17.2499 12.7439 17.1258 12.964 16.9609C13.1839 16.796 13.2502 16.6252 13.2502 16.4999C13.2502 16.3747 13.1839 16.2039 12.964 16.039C12.7439 15.8741 12.4056 15.7499 12.0002 15.7499C11.3014 15.7499 10.6396 15.5388 10.1359 15.1611C9.6319 14.7831 9.25015 14.2031 9.25015 13.4999C9.25015 12.7967 9.6319 12.2168 10.1359 11.8388C10.4543 11.6 10.8361 11.4284 11.2502 11.3339V10.9999C11.2502 10.5857 11.5859 10.2499 12.0002 10.2499ZM11.258 3.80267C10.63 4.4305 9.73741 4.71623 8.86148 4.57025L8.47281 4.50579L9.55191 6.31732C9.77152 6.27775 9.99524 6.25775 10.2189 6.25775H13.7824C14.0056 6.25775 14.2283 6.27792 14.4474 6.31732L15.5275 4.50579L15.1388 4.57025C14.2629 4.71623 13.3703 4.4305 12.7423 3.80267L12.0002 3.06048L11.258 3.80267Z" fill="#4D0CE7"/>
</svg>
