<svg width="20" height="20" viewBox="0 0 20 20" fill="none" xmlns="http://www.w3.org/2000/svg">
<path d="M9.99642 2.99902C9.00233 3.99311 8.44386 5.34138 8.44386 6.74723C8.44386 8.15308 9.00233 9.50135 9.99642 10.4954C10.9905 11.4895 12.3388 12.048 13.7446 12.048C15.1505 12.048 16.4987 11.4895 17.4928 10.4954C17.4928 11.9781 17.0532 13.4274 16.2295 14.6602C15.4057 15.893 14.235 16.8538 12.8652 17.4212C11.4954 17.9886 9.9881 18.1371 8.53394 17.8478C7.07978 17.5586 5.74404 16.8446 4.69565 15.7962C3.64726 14.7478 2.9333 13.4121 2.64404 11.9579C2.35479 10.5038 2.50325 8.99647 3.07063 7.62668C3.63802 6.25689 4.59885 5.08611 5.83163 4.2624C7.06441 3.43868 8.51377 2.99902 9.99642 2.99902Z" stroke="#4F46E5" stroke-width="1.66587" stroke-linecap="round" stroke-linejoin="round"/>
</svg>
