<svg width="12" height="17" viewBox="0 0 12 17" fill="none" xmlns="http://www.w3.org/2000/svg">
<path d="M8.72727 12.75C9.05455 11.6908 9.73295 10.7877 10.4045 9.88789C10.5818 9.65215 10.7591 9.41641 10.9295 9.17734C11.6045 8.23105 12 7.08555 12 5.84707C12 2.61641 9.31364 0 6 0C2.68636 0 0 2.61641 0 5.84375C0 7.08223 0.395455 8.23105 1.07045 9.17402C1.24091 9.41309 1.41818 9.64883 1.59545 9.88457C2.27045 10.7844 2.94886 11.6908 3.27273 12.7467H8.72727V12.75ZM6 17C7.50682 17 8.72727 15.8113 8.72727 14.3438V13.8125H3.27273V14.3438C3.27273 15.8113 4.49318 17 6 17ZM3.27273 5.84375C3.27273 6.13594 3.02727 6.375 2.72727 6.375C2.42727 6.375 2.18182 6.13594 2.18182 5.84375C2.18182 3.78848 3.88977 2.125 6 2.125C6.3 2.125 6.54545 2.36406 6.54545 2.65625C6.54545 2.94844 6.3 3.1875 6 3.1875C4.49318 3.1875 3.27273 4.37617 3.27273 5.84375Z" fill="#F59E0B"/>
</svg>
