<svg width="16" height="16" viewBox="0 0 16 16" fill="none" xmlns="http://www.w3.org/2000/svg">
<g clip-path="url(#clip0_6513_133792)">
<path d="M8.00293 0.833008C11.961 0.833008 15.1699 4.04196 15.1699 8C15.1699 11.958 11.961 15.167 8.00293 15.167C4.04489 15.167 0.835938 11.958 0.835938 8C0.835938 4.04196 4.04489 0.833008 8.00293 0.833008ZM8.00293 1.83301C4.59717 1.83301 1.83594 4.59424 1.83594 8C1.83594 11.4058 4.59717 14.167 8.00293 14.167C11.4087 14.167 14.1699 11.4058 14.1699 8C14.1699 4.59424 11.4087 1.83301 8.00293 1.83301ZM10.6699 7.5C10.9459 7.50018 11.1699 7.72397 11.1699 8C11.1699 8.27603 10.9459 8.49982 10.6699 8.5H5.33594C5.05995 8.49982 4.83594 8.27603 4.83594 8C4.83594 7.72397 5.05995 7.50018 5.33594 7.5H10.6699Z" fill="#D92D20"/>
</g>
<defs>
<clipPath id="clip0_6513_133792">
<rect width="16" height="16" fill="white"/>
</clipPath>
</defs>
</svg>
