<svg width="20" height="20" viewBox="0 0 20 20" fill="none" xmlns="http://www.w3.org/2000/svg">
<path fill-rule="evenodd" clip-rule="evenodd" d="M9.99707 1.04199C14.9446 1.04199 18.9551 5.05245 18.9551 10C18.9551 14.9476 14.9446 18.958 9.99707 18.958C5.04952 18.958 1.03906 14.9476 1.03906 10C1.03906 5.05245 5.04952 1.04199 9.99707 1.04199ZM9.99707 2.29199C5.73988 2.29199 2.28906 5.74281 2.28906 10C2.28906 14.2572 5.73988 17.708 9.99707 17.708C14.2543 17.708 17.7051 14.2572 17.7051 10C17.7051 5.74281 14.2543 2.29199 9.99707 2.29199ZM13.3301 9.375C13.6753 9.375 13.9551 9.65482 13.9551 10C13.9551 10.3452 13.6753 10.625 13.3301 10.625H6.66406C6.31888 10.625 6.03906 10.3452 6.03906 10C6.03906 9.65482 6.31888 9.375 6.66406 9.375H13.3301Z" fill="#161616"/>
</svg>
