<svg width="24" height="24" viewBox="0 0 24 24" fill="none" xmlns="http://www.w3.org/2000/svg">
<path fill-rule="evenodd" clip-rule="evenodd" d="M5.4865 13.25C5.94989 13.25 6.40566 13.3675 6.81169 13.5908L8.69255 14.625H9.50017C10.7386 14.625 11.7645 15.2586 12.3146 16.1045L15.9738 14.8848C17.3551 14.4245 18.8559 15.1208 19.3967 16.4727C19.7106 17.2581 19.37 18.1529 18.6135 18.5312L11.0285 22.3242C10.4154 22.6308 9.70959 22.6973 9.04998 22.5107L2.79607 20.7412C2.39764 20.6284 2.16576 20.2139 2.27849 19.8154C2.39133 19.4171 2.8059 19.1854 3.20427 19.2979L9.45818 21.0674C9.75801 21.1522 10.0789 21.1218 10.3576 20.9824L17.9426 17.1904C18.0015 17.1609 18.0286 17.0905 18.0041 17.0293C17.7583 16.4148 17.0753 16.0983 16.4474 16.3076L12.7492 17.541C12.7325 17.8468 12.5306 18.1132 12.2375 18.2109L9.55388 19.1055C9.19476 19.2252 8.80657 19.2251 8.44744 19.1055L5.76287 18.2109C5.37017 18.0798 5.15829 17.6555 5.28923 17.2627C5.42024 16.8698 5.84458 16.6572 6.23748 16.7881L8.92107 17.6826C8.97237 17.6997 9.02797 17.6997 9.07927 17.6826L11.1047 17.0078C10.8604 16.5676 10.3135 16.125 9.50017 16.125H8.50017C8.37385 16.125 8.24953 16.0931 8.13884 16.0322L6.08904 14.9043C5.90452 14.8028 5.69707 14.75 5.4865 14.75H3.00017C2.58605 14.7499 2.25017 14.4141 2.25017 14C2.25017 13.5859 2.58605 13.2501 3.00017 13.25H5.4865ZM14.0002 4.25C14.4144 4.25 14.7502 4.58579 14.7502 5V5.33496C15.5388 5.51562 16.2347 5.98068 16.5646 6.68066C16.741 7.0553 16.5808 7.50217 16.2062 7.67871C15.8315 7.85529 15.3848 7.69403 15.2082 7.31934C15.0908 7.07062 14.6684 6.75 14.0002 6.75C13.5947 6.75 13.2564 6.87413 13.0363 7.03906C12.8164 7.20396 12.7502 7.37478 12.7502 7.5C12.7502 7.62522 12.8164 7.79604 13.0363 7.96094C13.2564 8.12587 13.5947 8.25 14.0002 8.25C14.6989 8.25 15.3607 8.46114 15.8644 8.83887C16.3684 9.21687 16.7502 9.79679 16.7502 10.5C16.7502 11.2032 16.3684 11.7831 15.8644 12.1611C15.546 12.3999 15.1642 12.5715 14.7502 12.666V13C14.7502 13.4142 14.4144 13.75 14.0002 13.75C13.586 13.75 13.2502 13.4142 13.2502 13V12.665C12.4615 12.4844 11.7656 12.0193 11.4357 11.3193C11.2593 10.9447 11.4195 10.4978 11.7941 10.3213C12.1688 10.1447 12.6156 10.306 12.7922 10.6807C12.9095 10.9294 13.332 11.25 14.0002 11.25C14.4057 11.25 14.7439 11.1259 14.964 10.9609C15.1839 10.796 15.2502 10.6252 15.2502 10.5C15.2502 10.3748 15.1839 10.204 14.964 10.0391C14.7439 9.87413 14.4057 9.75 14.0002 9.75C13.3014 9.75 12.6397 9.53887 12.1359 9.16113C11.6319 8.78313 11.2502 8.20321 11.2502 7.5C11.2502 6.79679 11.6319 6.21687 12.1359 5.83887C12.4543 5.6001 12.8361 5.42847 13.2502 5.33398V5C13.2502 4.58579 13.586 4.25 14.0002 4.25ZM14.0002 1.25C18.2804 1.25 21.7502 4.71979 21.7502 9C21.7502 10.6455 21.2363 12.1731 20.3605 13.4287C20.1236 13.7684 19.6563 13.8521 19.3166 13.6152C18.977 13.3784 18.8934 12.911 19.1301 12.5713C19.836 11.5592 20.2502 10.3289 20.2502 9C20.2502 5.54822 17.4519 2.75 14.0002 2.75C10.5484 2.75 7.75017 5.54822 7.75017 9C7.75017 9.95987 7.96661 10.867 8.35173 11.6777C8.52947 12.0519 8.36943 12.5 7.99529 12.6777C7.62133 12.8551 7.17405 12.696 6.99626 12.3223C6.51756 11.3146 6.25017 10.1873 6.25017 9C6.25017 4.71979 9.71997 1.25 14.0002 1.25Z" fill="#4D0CE7"/>
</svg>
