<svg width="20" height="20" viewBox="0 0 20 20" fill="none" xmlns="http://www.w3.org/2000/svg">
<path fill-rule="evenodd" clip-rule="evenodd" d="M15 2.29199C16.7259 2.29199 18.125 3.6911 18.125 5.41699C18.1248 7.14273 16.7258 8.54199 15 8.54199C13.8609 8.54199 12.8674 7.9302 12.3213 7.01953L7.96973 9.02832C8.06977 9.33427 8.125 9.66063 8.125 10C8.125 10.2048 8.10403 10.4048 8.06641 10.5986L12.5381 12.6621C13.11 11.9302 13.9992 11.458 15 11.458C16.7258 11.458 18.1248 12.8573 18.125 14.583C18.125 16.3089 16.7259 17.708 15 17.708C13.2741 17.708 11.875 16.3089 11.875 14.583C11.875 14.3055 11.9116 14.0365 11.9795 13.7803L7.58496 11.7539C7.02273 12.5809 6.07542 13.125 5 13.125C3.27411 13.125 1.875 11.7259 1.875 10C1.875 8.27411 3.27411 6.875 5 6.875C5.93584 6.875 6.77298 7.28866 7.3457 7.94043L11.9033 5.83594C11.8849 5.69888 11.875 5.55907 11.875 5.41699C11.875 3.6911 13.2741 2.29199 15 2.29199ZM15 12.708C13.9646 12.708 13.1252 13.5476 13.125 14.583C13.125 15.6185 13.9645 16.458 15 16.458C16.0355 16.458 16.875 15.6185 16.875 14.583C16.8748 13.5476 16.0354 12.708 15 12.708ZM5 8.125C3.96447 8.125 3.125 8.96447 3.125 10C3.125 11.0355 3.96447 11.875 5 11.875C6.03553 11.875 6.875 11.0355 6.875 10C6.875 8.96447 6.03553 8.125 5 8.125ZM15 3.54199C13.9645 3.54199 13.125 4.38146 13.125 5.41699C13.1252 6.45238 13.9646 7.29199 15 7.29199C16.0354 7.29199 16.8748 6.45238 16.875 5.41699C16.875 4.38146 16.0355 3.54199 15 3.54199Z" fill="#161616"/>
</svg>
