<svg width="13" height="12" viewBox="0 0 13 12" fill="none" xmlns="http://www.w3.org/2000/svg">
<path d="M6.86148 0.421875C6.73726 0.164062 6.47476 0 6.18648 0C5.8982 0 5.63804 0.164062 5.51148 0.421875L4.00445 3.52266L0.638823 4.01953C0.357573 4.06172 0.123198 4.25859 0.0364792 4.52812C-0.0502396 4.79766 0.0200729 5.09531 0.221635 5.29453L2.66382 7.71094L2.08726 11.1258C2.04039 11.407 2.15757 11.693 2.3896 11.8594C2.62164 12.0258 2.92867 12.0469 3.18179 11.9133L6.18882 10.3078L9.19585 11.9133C9.44898 12.0469 9.75601 12.0281 9.98804 11.8594C10.2201 11.6906 10.3373 11.407 10.2904 11.1258L9.71148 7.71094L12.1537 5.29453C12.3552 5.09531 12.4279 4.79766 12.3388 4.52812C12.2498 4.25859 12.0177 4.06172 11.7365 4.01953L8.36851 3.52266L6.86148 0.421875Z" fill="white"/>
</svg>
