<svg width="24" height="24" viewBox="0 0 24 24" fill="none" xmlns="http://www.w3.org/2000/svg">
<path d="M21 11.2496C21.4141 11.2496 21.7498 11.5855 21.75 11.9996C21.75 16.2366 18.6197 19.2496 14.5 19.2496H4.53711C4.60367 19.3097 4.67286 19.3701 4.74219 19.4303C5.04148 19.6901 5.34227 19.933 5.57031 20.1109C5.68396 20.1996 5.77905 20.2713 5.84473 20.3209C5.87742 20.3456 5.90282 20.3648 5.91992 20.3775L5.93945 20.3922L5.94434 20.3961C6.2778 20.6418 6.34913 21.1114 6.10352 21.4449C5.85792 21.778 5.38904 21.8493 5.05566 21.6041L5.05273 21.6022L5.04688 21.5973L5.02344 21.5807C5.00393 21.5661 4.97592 21.545 4.94043 21.5182C4.86938 21.4645 4.76818 21.3878 4.64746 21.2936C4.40682 21.1058 4.08337 20.8458 3.75781 20.5631C3.43604 20.2837 3.09466 19.9663 2.82812 19.6647C2.6957 19.5148 2.56567 19.3505 2.46484 19.1832C2.37634 19.0363 2.25 18.7905 2.25 18.4996C2.25007 18.2086 2.37636 17.9628 2.46484 17.816C2.56573 17.6487 2.69562 17.4846 2.82812 17.3346C3.09473 17.0329 3.43597 16.7156 3.75781 16.4361C4.08341 16.1534 4.40778 15.8945 4.64844 15.7067C4.76893 15.6126 4.86945 15.5357 4.94043 15.482C4.97597 15.4552 5.05566 15.3961 5.05566 15.3961C5.38915 15.1507 5.85792 15.2219 6.10352 15.5553C6.3491 15.8887 6.27866 16.3584 5.94531 16.6041L5.93945 16.608L5.91992 16.6217C5.90286 16.6344 5.87741 16.6536 5.84473 16.6783C5.77905 16.7279 5.68396 16.8006 5.57031 16.8893C5.34236 17.0672 5.0413 17.3093 4.74219 17.569C4.67282 17.6292 4.60371 17.6895 4.53711 17.7496H14.5C17.8069 17.7496 20.25 15.3926 20.25 11.9996C20.2502 11.5856 20.5859 11.2496 21 11.2496ZM17.8965 2.55528C18.1421 2.22185 18.6118 2.15049 18.9453 2.3961L18.9473 2.39806L18.9541 2.40294L18.9766 2.41954C18.9961 2.43408 19.0241 2.45528 19.0596 2.48204C19.1306 2.5357 19.2319 2.61248 19.3525 2.70665C19.5932 2.89445 19.9167 3.15353 20.2422 3.43614C20.5641 3.71561 20.9052 4.03282 21.1719 4.33458C21.3044 4.48457 21.4343 4.64865 21.5352 4.81603C21.6236 4.96279 21.7499 5.20856 21.75 5.49962C21.75 5.79084 21.6237 6.03736 21.5352 6.18419C21.4343 6.35153 21.3044 6.51567 21.1719 6.66563C20.9054 6.96725 20.5639 7.28373 20.2422 7.5631C19.9166 7.84574 19.5932 8.10577 19.3525 8.29356C19.2318 8.38778 19.1306 8.46451 19.0596 8.51817C19.024 8.54502 18.9443 8.60411 18.9443 8.60411C18.6109 8.84931 18.1421 8.77807 17.8965 8.44493C17.6509 8.11143 17.7222 7.64175 18.0557 7.3961L18.0605 7.3922L18.0801 7.37755C18.0972 7.3648 18.1226 7.3456 18.1553 7.32091C18.2209 7.27131 18.316 7.19964 18.4297 7.11095C18.6578 6.93296 18.9595 6.69017 19.2588 6.43028C19.328 6.37018 19.3964 6.3096 19.4629 6.24962H9.5C6.19323 6.24962 3.75015 8.60679 3.75 11.9996C3.75 12.4138 3.41421 12.7496 3 12.7496C2.58579 12.7496 2.25 12.4138 2.25 11.9996C2.25015 7.76284 5.38042 4.74962 9.5 4.74962H19.4629C19.3964 4.68957 19.3281 4.62912 19.2588 4.56896C18.9595 4.30911 18.6577 4.06725 18.4297 3.88927C18.3161 3.80062 18.2209 3.72891 18.1553 3.67931C18.1225 3.65452 18.0972 3.63444 18.0801 3.62169L18.0605 3.60802L18.0557 3.60411C17.7222 3.35846 17.6509 2.88878 17.8965 2.55528Z" fill="white"/>
</svg>
