<svg width="32" height="32" viewBox="0 0 32 32" fill="none" xmlns="http://www.w3.org/2000/svg">
<g clip-path="url(#clip0_7409_141361)">
<path d="M25.4768 2.37793H10.7969V8.46558H28.6121V5.51196C28.6121 3.78369 27.2056 2.37793 25.4768 2.37793Z" fill="#CED9F9"/>
<path d="M17.1697 9.4021H0V3.75342C0 1.68359 1.68433 0 3.75488 0H9.24463C9.79028 0 10.3159 0.11499 10.7935 0.331055C11.4604 0.631592 12.0334 1.12695 12.4353 1.77417L17.1697 9.4021Z" fill="#1640C1"/>
<path d="M32 10.6665V28.8618C32 30.5923 30.5913 31.9998 28.8601 31.9998H3.13989C1.40869 31.9998 0 30.5923 0 28.8618V7.52783H28.8601C30.5913 7.52783 32 8.93579 32 10.6665Z" fill="#2354E6"/>
<path d="M32 10.6665V28.8618C32 30.5923 30.5913 31.9998 28.8601 31.9998H16V7.52783H28.8601C30.5913 7.52783 32 8.93579 32 10.6665Z" fill="#1849D6"/>
<path d="M24.4131 19.7637C24.4131 24.4055 20.637 28.1819 15.9956 28.1819C11.3542 28.1819 7.57812 24.4055 7.57812 19.7637C7.57812 15.1226 11.3542 11.3462 15.9956 11.3462C20.637 11.3462 24.4131 15.1226 24.4131 19.7637Z" fill="#E7ECFC"/>
<path d="M24.4175 19.7637C24.4175 24.4055 20.6414 28.1819 16 28.1819V11.3462C20.6414 11.3462 24.4175 15.1226 24.4175 19.7637Z" fill="#CED9F9"/>
<path d="M18.7126 19.8669C18.537 20.0156 18.3219 20.0881 18.1088 20.0881C17.842 20.0881 17.5768 19.9751 17.3913 19.7549L16.9369 19.2163V22.7424C16.9369 23.26 16.517 23.6799 15.9994 23.6799C15.4818 23.6799 15.0619 23.26 15.0619 22.7424V19.2163L14.6076 19.7549C14.2731 20.1506 13.682 20.2012 13.2863 19.8669C12.8908 19.5332 12.84 18.9419 13.1737 18.5461L15.0295 16.3462C15.2714 16.0601 15.6244 15.8955 15.9994 15.8955C16.3744 15.8955 16.7275 16.0601 16.9694 16.3462L18.8251 18.5461C19.1588 18.9419 19.1081 19.5332 18.7126 19.8669Z" fill="#6C8DEF"/>
<path d="M18.7131 19.8669C18.5376 20.0156 18.3225 20.0881 18.1094 20.0881C17.8425 20.0881 17.5774 19.9751 17.3918 19.7549L16.9375 19.2163V22.7424C16.9375 23.26 16.5176 23.6799 16 23.6799V15.8955C16.375 15.8955 16.728 16.0601 16.97 16.3462L18.8257 18.5461C19.1594 18.9419 19.1086 19.5332 18.7131 19.8669Z" fill="#3B67E9"/>
</g>
<defs>
<clipPath id="clip0_7409_141361">
<rect width="32" height="32" fill="white"/>
</clipPath>
</defs>
</svg>
