<svg width="20" height="20" viewBox="0 0 20 20" fill="none" xmlns="http://www.w3.org/2000/svg">
<path d="M13.3251 17.9917V16.3259C13.3251 15.4422 12.9741 14.5948 12.3493 13.97C11.7245 13.3452 10.877 12.9941 9.99341 12.9941H4.9958C4.11217 12.9941 3.26473 13.3452 2.63991 13.97C2.01508 14.5948 1.66406 15.4422 1.66406 16.3259V17.9917" stroke="#2563EB" stroke-width="1.66587" stroke-linecap="round" stroke-linejoin="round"/>
<path d="M7.4958 9.6625C9.33587 9.6625 10.8275 8.17083 10.8275 6.33076C10.8275 4.49069 9.33587 2.99902 7.4958 2.99902C5.65573 2.99902 4.16406 4.49069 4.16406 6.33076C4.16406 8.17083 5.65573 9.6625 7.4958 9.6625Z" stroke="#2563EB" stroke-width="1.66587" stroke-linecap="round" stroke-linejoin="round"/>
<path d="M18.3269 17.9919V16.326C18.3264 15.5878 18.0807 14.8707 17.6284 14.2872C17.1761 13.7038 16.5429 13.2871 15.8281 13.1025" stroke="#2563EB" stroke-width="1.66587" stroke-linecap="round" stroke-linejoin="round"/>
<path d="M13.3281 3.10742C14.0448 3.29092 14.68 3.70772 15.1336 4.29211C15.5872 4.87651 15.8335 5.59526 15.8335 6.33504C15.8335 7.07483 15.5872 7.79358 15.1336 8.37797C14.68 8.96237 14.0448 9.37917 13.3281 9.56267" stroke="#2563EB" stroke-width="1.66587" stroke-linecap="round" stroke-linejoin="round"/>
</svg>
