<svg width="24" height="24" viewBox="0 0 24 24" fill="none" xmlns="http://www.w3.org/2000/svg">
<path fill-rule="evenodd" clip-rule="evenodd" d="M7.68978 14.4736C10.3275 12.8426 13.6731 12.8426 16.3109 14.4736C16.3886 14.5217 16.4869 14.5794 16.5999 14.6455C17.1122 14.9453 17.9259 15.4213 18.4808 15.9854C18.8292 16.3395 19.1771 16.8221 19.2406 17.4238C19.3084 18.068 19.0346 18.6647 18.513 19.1807C17.6515 20.033 16.5842 20.7499 15.1849 20.75H8.81575C7.4164 20.75 6.34921 20.033 5.48763 19.1807C4.96606 18.6647 4.69229 18.068 4.76009 17.4238C4.82355 16.822 5.17145 16.3395 5.51985 15.9854C6.07462 15.4214 6.88744 14.9453 7.39974 14.6455C7.51291 14.5793 7.61201 14.5217 7.68978 14.4736ZM16.5462 12.4268C18.1914 12.0213 19.9538 12.3132 21.431 13.3027C21.486 13.3396 21.5575 13.3856 21.6409 13.4385C22.0324 13.6863 22.6859 14.0998 23.1292 14.5879C23.4102 14.8973 23.6915 15.3212 23.7425 15.8467C23.7968 16.4062 23.578 16.9299 23.1536 17.3848C22.5859 17.9933 21.8932 18.5512 20.8695 18.707C20.6305 18.7434 20.5106 18.7617 20.4388 18.6875C20.367 18.6131 20.3939 18.471 20.4476 18.1875C20.5013 17.904 20.5165 17.6047 20.4837 17.293C20.3774 16.2839 19.8066 15.5499 19.3724 15.1084C18.6995 14.4244 17.7674 13.879 17.2728 13.5898C17.0661 13.462 16.7844 13.3013 16.4974 13.1475C16.1191 12.9447 15.9298 12.8432 15.9466 12.707C15.9638 12.5707 16.1583 12.5224 16.5462 12.4268ZM2.57063 13.3027C4.04798 12.3132 5.81016 12.0211 7.4554 12.4268C7.84313 12.5224 8.03689 12.5707 8.05403 12.707C8.07091 12.8432 7.88157 12.9447 7.50325 13.1475C7.2162 13.3013 6.9346 13.462 6.72786 13.5898C6.23327 13.879 5.30223 14.4243 4.62923 15.1084C4.19494 15.5498 3.62328 16.2835 3.51692 17.293C3.48411 17.6047 3.49936 17.904 3.55306 18.1875C3.60675 18.471 3.63361 18.6131 3.56185 18.6875C3.49003 18.7617 3.37026 18.7434 3.13118 18.707C2.10754 18.5512 1.41571 17.9932 0.847979 17.3848C0.423494 16.9298 0.203858 16.4063 0.258135 15.8467C0.3092 15.3211 0.59043 14.8973 0.871416 14.5879C1.3148 14.0998 1.96827 13.6863 2.3597 13.4385C2.44333 13.3855 2.51555 13.3396 2.57063 13.3027ZM6.00032 5.25C6.16588 5.25002 6.32873 5.26224 6.48763 5.28613C6.67722 5.31465 6.77192 5.32942 6.82063 5.4082C6.86921 5.48698 6.83578 5.59163 6.7679 5.80078C6.59422 6.33594 6.50032 6.90696 6.50032 7.5C6.50032 8.73993 6.91062 9.88381 7.60286 10.8037C7.73478 10.979 7.80072 11.0671 7.7806 11.1572C7.76025 11.2475 7.67498 11.292 7.50521 11.3809C7.05525 11.6164 6.5434 11.75 6.00032 11.75C4.2054 11.75 2.75032 10.2949 2.75032 8.5C2.75032 6.70508 4.2054 5.25 6.00032 5.25ZM12.0003 3.25C14.3474 3.25016 16.2503 5.15289 16.2503 7.5C16.2503 9.84711 14.3474 11.7498 12.0003 11.75C9.65311 11.75 7.75032 9.84721 7.75032 7.5C7.75032 5.15279 9.65311 3.25 12.0003 3.25ZM18.0003 5.25C19.7951 5.25013 21.2503 6.70516 21.2503 8.5C21.2503 10.2948 19.7951 11.7499 18.0003 11.75C17.4574 11.7499 16.9453 11.6164 16.4954 11.3809C16.3257 11.292 16.2404 11.2475 16.22 11.1572C16.1999 11.0671 16.2659 10.979 16.3978 10.8037C17.09 9.88382 17.5003 8.7399 17.5003 7.5C17.5003 6.90698 17.4064 6.33592 17.2327 5.80078C17.1649 5.59169 17.1315 5.48698 17.18 5.4082C17.2287 5.32953 17.3236 5.31462 17.513 5.28613C17.6718 5.26226 17.8349 5.25002 18.0003 5.25Z" fill="#4B5565"/>
</svg>
