<svg width="18" height="16" viewBox="0 0 18 16" fill="none" xmlns="http://www.w3.org/2000/svg">
<path d="M8.9987 0C9.49792 0 9.95847 0.263672 10.2116 0.696094L17.8053 13.6336C18.062 14.0695 18.062 14.6074 17.8124 15.0434C17.5628 15.4793 17.0952 15.75 16.5925 15.75H1.40495C0.902218 15.75 0.43464 15.4793 0.185031 15.0434C-0.0645789 14.6074 -0.0610632 14.066 0.192062 13.6336L7.78581 0.696094C8.03894 0.263672 8.49948 0 8.9987 0ZM8.9987 4.5C8.53112 4.5 8.15495 4.87617 8.15495 5.34375V9.28125C8.15495 9.74883 8.53112 10.125 8.9987 10.125C9.46628 10.125 9.84245 9.74883 9.84245 9.28125V5.34375C9.84245 4.87617 9.46628 4.5 8.9987 4.5ZM10.1237 12.375C10.1237 12.0766 10.0052 11.7905 9.7942 11.5795C9.58322 11.3685 9.29707 11.25 8.9987 11.25C8.70033 11.25 8.41419 11.3685 8.20321 11.5795C7.99223 11.7905 7.8737 12.0766 7.8737 12.375C7.8737 12.6734 7.99223 12.9595 8.20321 13.1705C8.41419 13.3815 8.70033 13.5 8.9987 13.5C9.29707 13.5 9.58322 13.3815 9.7942 13.1705C10.0052 12.9595 10.1237 12.6734 10.1237 12.375Z" fill="#DC2626"/>
</svg>
