<svg width="20" height="20" viewBox="0 0 20 20" fill="none" xmlns="http://www.w3.org/2000/svg">
<path d="M10.0127 14.583C10.4729 14.583 10.8457 14.9568 10.8457 15.417C10.8455 15.8771 10.4728 16.25 10.0127 16.25H10.0029C9.5428 16.25 9.1701 15.8771 9.16992 15.417C9.16992 14.9568 9.54269 14.583 10.0029 14.583H10.0127ZM6.43555 12.4746C8.34633 10.5641 11.6587 10.5639 13.5693 12.4746L12.6855 13.3584C11.263 11.9359 8.74196 11.936 7.31934 13.3584L6.43555 12.4746ZM4.18555 9.93652C7.74329 6.97173 12.4501 6.95561 15.833 9.94824L15.0049 10.8848C12.1086 8.32243 8.095 8.30613 4.98633 10.8965L4.18555 9.93652ZM10.0029 3.95801C13.0249 3.9581 16.0145 5.13856 18.7393 7.43945L17.9326 8.39453C15.3945 6.2513 12.6825 5.2081 10.0029 5.20801C7.32324 5.20802 4.6105 6.25115 2.07227 8.39453L1.26562 7.43945C3.99055 5.13841 6.98086 3.95802 10.0029 3.95801Z" fill="white"/>
</svg>
